<svg xmlns="http://www.w3.org/2000/svg" xmlns:xlink="http://www.w3.org/1999/xlink" id="Layer_1" data-name="Layer 1" viewBox="0 0 1366 768"><defs><style>      .cls-1 {        stroke: url(#New_Gradient_Swatch-6);      }      .cls-1, .cls-2, .cls-3, .cls-4, .cls-5, .cls-6, .cls-7, .cls-8, .cls-9, .cls-10, .cls-11, .cls-12, .cls-13, .cls-14, .cls-15, .cls-16, .cls-17, .cls-18, .cls-19, .cls-20, .cls-21, .cls-22, .cls-23, .cls-24, .cls-25, .cls-26, .cls-27, .cls-28, .cls-29, .cls-30, .cls-31, .cls-32, .cls-33, .cls-34, .cls-35, .cls-36, .cls-37, .cls-38, .cls-39, .cls-40, .cls-41, .cls-42 {        fill: none;        stroke-miterlimit: 10;        stroke-width: .28px;      }      .cls-2 {        stroke: url(#New_Gradient_Swatch-22);      }      .cls-3 {        stroke: url(#New_Gradient_Swatch-32);      }      .cls-4 {        stroke: url(#New_Gradient_Swatch);      }      .cls-5 {        stroke: url(#New_Gradient_Swatch-18);      }      .cls-6 {        stroke: url(#New_Gradient_Swatch-33);      }      .cls-7 {        stroke: url(#New_Gradient_Swatch-26);      }      .cls-8 {        stroke: url(#New_Gradient_Swatch-21);      }      .cls-9 {        stroke: url(#New_Gradient_Swatch-11);      }      .cls-10 {        stroke: url(#New_Gradient_Swatch-42);      }      .cls-11 {        stroke: url(#New_Gradient_Swatch-39);      }      .cls-12 {        stroke: url(#New_Gradient_Swatch-31);      }      .cls-13 {        stroke: url(#New_Gradient_Swatch-30);      }      .cls-14 {        stroke: url(#New_Gradient_Swatch-35);      }      .cls-15 {        stroke: url(#New_Gradient_Swatch-29);      }      .cls-16 {        stroke: url(#New_Gradient_Swatch-17);      }      .cls-17 {        stroke: url(#New_Gradient_Swatch-23);      }      .cls-18 {        stroke: url(#New_Gradient_Swatch-16);      }      .cls-19 {        stroke: url(#New_Gradient_Swatch-14);      }      .cls-20 {        stroke: url(#New_Gradient_Swatch-28);      }      .cls-21 {        stroke: url(#New_Gradient_Swatch-8);      }      .cls-22 {        stroke: url(#New_Gradient_Swatch-41);      }      .cls-23 {        stroke: url(#New_Gradient_Swatch-25);      }      .cls-24 {        stroke: url(#New_Gradient_Swatch-2);      }      .cls-25 {        stroke: url(#New_Gradient_Swatch-24);      }      .cls-26 {        stroke: url(#New_Gradient_Swatch-12);      }      .cls-27 {        stroke: url(#New_Gradient_Swatch-15);      }      .cls-28 {        stroke: url(#New_Gradient_Swatch-37);      }      .cls-29 {        stroke: url(#New_Gradient_Swatch-19);      }      .cls-30 {        stroke: url(#New_Gradient_Swatch-10);      }      .cls-31 {        stroke: url(#New_Gradient_Swatch-7);      }      .cls-32 {        stroke: url(#New_Gradient_Swatch-5);      }      .cls-33 {        stroke: url(#New_Gradient_Swatch-34);      }      .cls-34 {        stroke: url(#New_Gradient_Swatch-38);      }      .cls-35 {        stroke: url(#New_Gradient_Swatch-9);      }      .cls-36 {        stroke: url(#New_Gradient_Swatch-13);      }      .cls-37 {        stroke: url(#New_Gradient_Swatch-40);      }      .cls-38 {        stroke: url(#New_Gradient_Swatch-36);      }      .cls-39 {        stroke: url(#New_Gradient_Swatch-27);      }      .cls-40 {        stroke: url(#New_Gradient_Swatch-3);      }      .cls-41 {        stroke: url(#New_Gradient_Swatch-4);      }      .cls-42 {        stroke: url(#New_Gradient_Swatch-20);      }    </style><linearGradient id="New_Gradient_Swatch" data-name="New Gradient Swatch" x1="66.51" y1="384" x2="1099.49" y2="384" gradientTransform="matrix(1, 0, 0, 1, 0, 0)" gradientUnits="userSpaceOnUse"><stop offset="0" stop-color="#c8d5dc"></stop><stop offset=".6" stop-color="#20b4c4"></stop><stop offset="1" stop-color="#126c76"></stop></linearGradient><linearGradient id="New_Gradient_Swatch-2" data-name="New Gradient Swatch" x1="81.77" y1="380.29" x2="1121.81" y2="380.29" gradientTransform="translate(18.1 -8.77) rotate(1.27) scale(.98) skewX(-.77)" xlink:href="#New_Gradient_Swatch"></linearGradient><linearGradient id="New_Gradient_Swatch-3" data-name="New Gradient Swatch" x1="98.48" y1="375.8" x2="1144.45" y2="375.8" gradientTransform="translate(36.21 -17.54) rotate(2.58) scale(.96) skewX(-1.55)" xlink:href="#New_Gradient_Swatch"></linearGradient><linearGradient id="New_Gradient_Swatch-4" data-name="New Gradient Swatch" x1="116.53" y1="380.35" x2="1167.59" y2="380.35" gradientTransform="translate(54.31 -26.31) rotate(3.95) scale(.95 .96) skewX(-2.35)" xlink:href="#New_Gradient_Swatch"></linearGradient><linearGradient id="New_Gradient_Swatch-5" data-name="New Gradient Swatch" x1="135.73" y1="384.89" x2="1191.05" y2="384.89" gradientTransform="translate(72.42 -35.08) rotate(5.37) scale(.93 .95) skewX(-3.17)" xlink:href="#New_Gradient_Swatch"></linearGradient><linearGradient id="New_Gradient_Swatch-6" data-name="New Gradient Swatch" x1="155.92" y1="388.71" x2="1214.62" y2="388.71" gradientTransform="translate(90.52 -43.85) rotate(6.83) scale(.91 .94) skewX(-3.99)" xlink:href="#New_Gradient_Swatch"></linearGradient><linearGradient id="New_Gradient_Swatch-7" data-name="New Gradient Swatch" x1="174.51" y1="391.51" x2="1238.08" y2="391.51" gradientTransform="translate(108.63 -52.62) rotate(8.36) scale(.9 .93) skewX(-4.82)" xlink:href="#New_Gradient_Swatch"></linearGradient><linearGradient id="New_Gradient_Swatch-8" data-name="New Gradient Swatch" x1="193.44" y1="392.75" x2="1261.2" y2="392.75" gradientTransform="translate(126.73 -61.39) rotate(9.93) scale(.88 .92) skewX(-5.64)" xlink:href="#New_Gradient_Swatch"></linearGradient><linearGradient id="New_Gradient_Swatch-9" data-name="New Gradient Swatch" x1="212.92" y1="391.72" x2="1283.71" y2="391.72" gradientTransform="translate(144.84 -70.16) rotate(11.56) scale(.87 .91) skewX(-6.46)" xlink:href="#New_Gradient_Swatch"></linearGradient><linearGradient id="New_Gradient_Swatch-10" data-name="New Gradient Swatch" x1="232.5" y1="389.42" x2="1305.33" y2="389.42" gradientTransform="translate(162.94 -78.94) rotate(13.24) scale(.85 .91) skewX(-7.27)" xlink:href="#New_Gradient_Swatch"></linearGradient><linearGradient id="New_Gradient_Swatch-11" data-name="New Gradient Swatch" x1="251.71" y1="385.95" x2="1325.77" y2="385.95" gradientTransform="translate(181.04 -87.71) rotate(14.97) scale(.84 .91) skewX(-8.06)" xlink:href="#New_Gradient_Swatch"></linearGradient><linearGradient id="New_Gradient_Swatch-12" data-name="New Gradient Swatch" x1="270.09" y1="381.27" x2="1344.74" y2="381.27" gradientTransform="translate(199.15 -96.48) rotate(16.76) scale(.83 .91) skewX(-8.82)" xlink:href="#New_Gradient_Swatch"></linearGradient><linearGradient id="New_Gradient_Swatch-13" data-name="New Gradient Swatch" x1="287.3" y1="375.17" x2="1361.95" y2="375.17" gradientTransform="translate(217.25 -105.25) rotate(18.6) scale(.82 .91) skewX(-9.55)" xlink:href="#New_Gradient_Swatch"></linearGradient><linearGradient id="New_Gradient_Swatch-14" data-name="New Gradient Swatch" x1="303.07" y1="367.64" x2="1377.13" y2="367.64" gradientTransform="translate(235.36 -114.02) rotate(20.49) scale(.81 .91) skewX(-10.23)" xlink:href="#New_Gradient_Swatch"></linearGradient><linearGradient id="New_Gradient_Swatch-15" data-name="New Gradient Swatch" x1="317.22" y1="358.72" x2="1390.04" y2="358.72" gradientTransform="translate(253.46 -122.79) rotate(22.43) scale(.8 .91) skewX(-10.87)" xlink:href="#New_Gradient_Swatch"></linearGradient><linearGradient id="New_Gradient_Swatch-16" data-name="New Gradient Swatch" x1="329.56" y1="348.45" x2="1400.49" y2="348.45" gradientTransform="translate(271.57 -131.56) rotate(24.41) scale(.79 .92) skewX(-11.44)" xlink:href="#New_Gradient_Swatch"></linearGradient><linearGradient id="New_Gradient_Swatch-17" data-name="New Gradient Swatch" x1="339.83" y1="336.92" x2="1408.34" y2="336.92" gradientTransform="translate(289.67 -140.33) rotate(26.43) scale(.78 .92) skewX(-11.96)" xlink:href="#New_Gradient_Swatch"></linearGradient><linearGradient id="New_Gradient_Swatch-18" data-name="New Gradient Swatch" x1="347.56" y1="324.22" x2="1413.46" y2="324.22" gradientTransform="translate(307.78 -149.1) rotate(28.49) scale(.77 .93) skewX(-12.39)" xlink:href="#New_Gradient_Swatch"></linearGradient><linearGradient id="New_Gradient_Swatch-19" data-name="New Gradient Swatch" x1="352.69" y1="310.47" x2="1415.74" y2="310.47" gradientTransform="translate(325.88 -157.87) rotate(30.59) scale(.77 .94) skewX(-12.75)" xlink:href="#New_Gradient_Swatch"></linearGradient><linearGradient id="New_Gradient_Swatch-20" data-name="New Gradient Swatch" x1="357.87" y1="295.89" x2="1415.12" y2="295.89" gradientTransform="translate(343.99 -166.64) rotate(32.71) scale(.76 .95) skewX(-13.02)" xlink:href="#New_Gradient_Swatch"></linearGradient><linearGradient id="New_Gradient_Swatch-21" data-name="New Gradient Swatch" x1="363.45" y1="280.79" x2="1411.63" y2="280.79" gradientTransform="translate(362.09 -175.41) rotate(34.85) scale(.76 .97) skewX(-13.2)" xlink:href="#New_Gradient_Swatch"></linearGradient><linearGradient id="New_Gradient_Swatch-22" data-name="New Gradient Swatch" x1="369.44" y1="265.29" x2="1405.32" y2="265.29" gradientTransform="translate(380.19 -184.18) rotate(37.01) scale(.76 .98) skewX(-13.28)" xlink:href="#New_Gradient_Swatch"></linearGradient><linearGradient id="New_Gradient_Swatch-23" data-name="New Gradient Swatch" x1="375.84" y1="249.52" x2="1396.34" y2="249.52" gradientTransform="translate(398.3 -192.95) rotate(39.19) scale(.76 1) skewX(-13.27)" xlink:href="#New_Gradient_Swatch"></linearGradient><linearGradient id="New_Gradient_Swatch-24" data-name="New Gradient Swatch" x1="382.6" y1="233.64" x2="1384.83" y2="233.64" gradientTransform="translate(416.4 -201.72) rotate(41.36) scale(.76 1.02) skewX(-13.16)" xlink:href="#New_Gradient_Swatch"></linearGradient><linearGradient id="New_Gradient_Swatch-25" data-name="New Gradient Swatch" x1="389.71" y1="217.76" x2="1371" y2="217.76" gradientTransform="translate(434.51 -210.49) rotate(43.54) scale(.76 1.03) skewX(-12.95)" xlink:href="#New_Gradient_Swatch"></linearGradient><linearGradient id="New_Gradient_Swatch-26" data-name="New Gradient Swatch" x1="397.11" y1="202" x2="1355.03" y2="202" gradientTransform="translate(452.61 -219.27) rotate(45.71) scale(.76 1.05) skewX(-12.64)" xlink:href="#New_Gradient_Swatch"></linearGradient><linearGradient id="New_Gradient_Swatch-27" data-name="New Gradient Swatch" x1="404.74" y1="186.47" x2="1337.16" y2="186.47" gradientTransform="translate(470.72 -228.04) rotate(47.87) scale(.76 1.08) skewX(-12.24)" xlink:href="#New_Gradient_Swatch"></linearGradient><linearGradient id="New_Gradient_Swatch-28" data-name="New Gradient Swatch" x1="412.56" y1="171.27" x2="1317.68" y2="171.27" gradientTransform="translate(488.82 -236.81) rotate(50) scale(.77 1.1) skewX(-11.76)" xlink:href="#New_Gradient_Swatch"></linearGradient><linearGradient id="New_Gradient_Swatch-29" data-name="New Gradient Swatch" x1="420.5" y1="156.49" x2="1296.85" y2="156.49" gradientTransform="translate(506.93 -245.58) rotate(52.11) scale(.77 1.12) skewX(-11.19)" xlink:href="#New_Gradient_Swatch"></linearGradient><linearGradient id="New_Gradient_Swatch-30" data-name="New Gradient Swatch" x1="428.5" y1="142.19" x2="1274.95" y2="142.19" gradientTransform="translate(525.03 -254.35) rotate(54.19) scale(.78 1.14) skewX(-10.54)" xlink:href="#New_Gradient_Swatch"></linearGradient><linearGradient id="New_Gradient_Swatch-31" data-name="New Gradient Swatch" x1="436.51" y1="128.44" x2="1252.24" y2="128.44" gradientTransform="translate(543.13 -263.12) rotate(56.24) scale(.78 1.17) skewX(-9.83)" xlink:href="#New_Gradient_Swatch"></linearGradient><linearGradient id="New_Gradient_Swatch-32" data-name="New Gradient Swatch" x1="444.46" y1="115.28" x2="1228.98" y2="115.28" gradientTransform="translate(561.24 -271.89) rotate(58.24) scale(.79 1.2) skewX(-9.06)" xlink:href="#New_Gradient_Swatch"></linearGradient><linearGradient id="New_Gradient_Swatch-33" data-name="New Gradient Swatch" x1="452.3" y1="102.73" x2="1205.41" y2="102.73" gradientTransform="translate(579.34 -280.66) rotate(60.21) scale(.8 1.22) skewX(-8.24)" xlink:href="#New_Gradient_Swatch"></linearGradient><linearGradient id="New_Gradient_Swatch-34" data-name="New Gradient Swatch" x1="459.99" y1="90.81" x2="1181.78" y2="90.81" gradientTransform="translate(597.45 -289.43) rotate(62.12) scale(.81 1.25) skewX(-7.38)" xlink:href="#New_Gradient_Swatch"></linearGradient><linearGradient id="New_Gradient_Swatch-35" data-name="New Gradient Swatch" x1="467.48" y1="79.56" x2="1158.33" y2="79.56" gradientTransform="translate(615.55 -298.2) rotate(63.99) scale(.82 1.28) skewX(-6.49)" xlink:href="#New_Gradient_Swatch"></linearGradient><linearGradient id="New_Gradient_Swatch-36" data-name="New Gradient Swatch" x1="474.73" y1="68.24" x2="1135.35" y2="68.24" gradientTransform="translate(633.66 -306.97) rotate(65.81) scale(.83 1.3) skewX(-5.57)" xlink:href="#New_Gradient_Swatch"></linearGradient><linearGradient id="New_Gradient_Swatch-37" data-name="New Gradient Swatch" x1="481.7" y1="58.44" x2="1113.2" y2="58.44" gradientTransform="translate(651.76 -315.74) rotate(67.58) scale(.85 1.33) skewX(-4.64)" xlink:href="#New_Gradient_Swatch"></linearGradient><linearGradient id="New_Gradient_Swatch-38" data-name="New Gradient Swatch" x1="488.55" y1="49.28" x2="1092.43" y2="49.28" gradientTransform="translate(669.87 -324.51) rotate(69.29) scale(.86 1.36) skewX(-3.7)" xlink:href="#New_Gradient_Swatch"></linearGradient><linearGradient id="New_Gradient_Swatch-39" data-name="New Gradient Swatch" x1="494.84" y1="40.73" x2="1074.29" y2="40.73" gradientTransform="translate(687.97 -333.28) rotate(70.95) scale(.87 1.39) skewX(-2.76)" xlink:href="#New_Gradient_Swatch"></linearGradient><linearGradient id="New_Gradient_Swatch-40" data-name="New Gradient Swatch" x1="500.76" y1="32.94" x2="1063.74" y2="32.94" gradientTransform="translate(706.08 -342.05) rotate(72.56) scale(.89 1.42) skewX(-1.83)" xlink:href="#New_Gradient_Swatch"></linearGradient><linearGradient id="New_Gradient_Swatch-41" data-name="New Gradient Swatch" x1="506.29" y1="27.79" x2="1055.24" y2="27.79" gradientTransform="translate(724.18 -350.82) rotate(74.11) scale(.9 1.45) skewX(-.91)" xlink:href="#New_Gradient_Swatch"></linearGradient><linearGradient id="New_Gradient_Swatch-42" data-name="New Gradient Swatch" x1="511.38" y1="26.89" x2="1046.37" y2="26.89" gradientTransform="translate(742.28 -359.6) rotate(75.61) scale(.92 1.48)" xlink:href="#New_Gradient_Swatch"></linearGradient></defs><path class="cls-4" d="M445.79,622.57c88.81-68.62,213.35-69.46,301.67-.21,1.38,1.08,2.76,2.18,4.13,3.3,76.83,62.54,200.39,159.91,253.71,116.58,121.5-98.72,146.51-511.45-53.6-604.36C751.59,44.97,558.62-40.79,392.46,61.05S106.58,330.85,88.71,405.89c-17.87,75.04-66.11,234.06,80.4,282.3,146.51,48.24,181.53,16.08,217.98-16.08,19.89-17.55,39.02-34.34,58.7-49.54Z"></path><path class="cls-24" d="M394.15,65.25C231.91,167.9,118.03,331.25,100.81,407.28c-17.19,76.36-65.46,233.04,79.92,279.87,143.86,46.98,179.16,15.52,215.73-16.19,19.78-17.15,38.73-33.65,58.27-48.57,88-67.3,210.92-68.59,298.43-1.61,1.37,1.05,2.73,2.11,4.09,3.19,76.19,60.47,197.91,154.83,250.96,111.82,17.23-13.97,32.52-34.21,45.5-58.91,79-149.03,73.52-458.75-95.86-538.26-68.03-32.07-136.07-63.22-204.19-84.92C621.58,11.62,500.25-1.88,394.15,65.25Z"></path><path class="cls-40" d="M395.85,69.45C237.5,172.93,129.47,331.66,112.91,408.67c-16.51,77.67-64.63,231.44,79.44,277.44,141.4,45.14,176.78,14.97,213.49-16.29,19.66-16.75,38.44-32.97,57.83-47.61,87.2-65.98,208.49-67.72,295.18-3.01,1.36,1.01,2.71,2.04,4.06,3.08,75.54,58.4,195.43,149.75,248.2,107.06,17.08-13.83,32.18-33.81,45.19-58.07,79.27-147.88,74.96-452.5-92.3-531.9-67.51-32.33-135.91-63.63-206.06-84.14C620.58,15.04,498.79,2.18,395.85,69.45Z"></path><path class="cls-41" d="M397.54,73.65C243.07,177.98,140.92,332.07,125.01,410.07c-15.84,78.99-63.9,230.13,78.96,275,138.84,43.61,174.39,14.41,211.24-16.4,19.55-16.34,38.15-32.29,57.4-46.64,86.39-64.66,206.05-66.84,291.94-4.41,1.34,.97,2.68,1.96,4.02,2.97,74.9,56.34,192.94,144.67,245.45,102.3,16.94-13.68,31.89-33.4,44.87-57.24,79.81-146.59,76.2-445.85-88.73-525.54-67.08-32.41-135.76-64.01-207.94-83.36C619.56,18.49,497.32,6.26,397.54,73.65Z"></path><path class="cls-32" d="M399.23,77.85c-150.63,105.22-247.04,254.59-262.13,333.61-15.33,80.27-63.17,228.82,78.48,272.57,136.27,42.08,172,13.85,209-16.51,19.43-15.94,37.87-31.6,56.97-45.67,85.59-63.34,203.62-65.97,288.7-5.81,1.33,.94,2.66,1.89,3.98,2.86,74.26,54.27,190.46,139.59,242.69,97.54,16.79-13.54,31.61-32.98,44.56-56.41,80.35-145.3,77.58-439.48-85.17-519.19-66.59-32.61-135.62-64.39-209.81-82.59-147.98-36.3-270.66-47.9-367.27,19.59Z"></path><path class="cls-1" d="M400.93,82.05c-146.81,106.15-237.32,250.8-251.73,330.8-14.69,81.59-62.45,227.52,78,270.13,133.69,40.56,169.61,13.29,206.75-16.62,19.3-15.55,37.58-30.92,56.54-44.71,84.78-62.01,201.19-65.1,285.46-7.22,1.32,.9,2.64,1.82,3.95,2.75,73.61,52.21,187.98,134.51,239.94,92.78,16.65-13.39,31.32-32.56,44.24-55.57,80.9-144.02,78.96-433.12-81.61-512.83-66.1-32.82-135.49-64.75-211.69-81.81-153.31-34.33-276.42-45.29-369.86,22.28Z"></path><path class="cls-31" d="M402.62,86.25c-143.01,107.11-227.6,247-241.33,328-14.05,82.9-61.73,226.22,77.52,267.7,131.11,39.05,167.22,12.74,204.5-16.72,19.18-15.15,37.29-30.23,56.11-43.74,83.97-60.69,198.76-64.22,282.22-8.62,1.31,.87,2.61,1.75,3.91,2.64,72.97,50.14,185.49,129.43,237.19,88.02,16.5-13.25,31.04-32.15,43.93-54.74,81.46-142.73,80.34-426.77-78.05-506.47-65.62-33.02-135.36-65.09-213.56-81.03-158.65-32.33-282.17-42.65-372.44,24.96Z"></path><path class="cls-21" d="M404.32,90.45c-139.23,108.11-217.88,243.21-230.92,325.19-13.4,84.21-61.02,224.93,77.04,265.27,128.53,37.56,164.82,12.17,202.26-16.83,19.05-14.76,37.03-29.51,55.68-42.77,83.29-59.2,196.32-63.35,278.97-10.02,1.3,.83,2.59,1.68,3.88,2.54,72.33,48.08,183.01,124.36,234.43,83.25,16.36-13.11,30.75-31.73,43.61-53.9,82.03-141.44,81.72-420.42-74.49-500.11-65.13-33.23-135.24-65.43-215.43-80.25-164-30.31-287.94-39.99-375.03,27.64Z"></path><path class="cls-35" d="M406.01,94.65c-135.48,109.16-208.15,239.41-220.52,322.38-12.75,85.53-60.31,223.64,76.56,262.83,125.94,36.07,162.41,11.61,200.01-16.94,18.92-14.36,36.74-28.82,55.25-41.8,82.5-57.86,193.89-62.48,275.73-11.42,1.28,.8,2.56,1.6,3.84,2.43,71.68,46.01,180.53,119.28,231.68,78.49,16.21-12.96,30.47-31.31,43.3-53.07,82.6-140.15,83.1-414.08-70.93-493.76-64.64-33.44-135.12-65.75-217.31-79.47-169.35-28.28-293.7-37.29-377.61,30.32Z"></path><path class="cls-30" d="M407.71,98.85c-131.75,110.25-198.42,235.62-210.12,319.58-12.1,86.84-59.61,222.35,76.08,260.4,123.34,34.59,160,11.05,197.76-17.04,18.78-13.97,36.46-28.14,54.82-40.84,81.7-56.52,191.46-61.6,272.49-12.82,1.27,.76,2.54,1.53,3.81,2.32,71.04,43.95,178.05,114.2,228.92,73.73,16.07-12.82,30.2-30.89,42.98-52.24,83.19-138.86,84.49-407.75-67.36-487.4-64.15-33.65-135.01-66.06-219.18-78.69-174.72-26.22-299.46-34.56-380.2,33Z"></path><path class="cls-9" d="M409.4,103.05c-128.04,111.38-188.69,231.83-199.72,316.77-11.44,88.16-58.92,221.07,75.6,257.97,120.74,33.12,157.59,10.48,195.52-17.15,18.65-13.58,36.17-27.45,54.39-39.87,80.91-55.18,188.93-60.57,269.25-14.22,1.26,.73,2.52,1.46,3.77,2.21,70.4,41.88,175.56,109.12,226.17,68.97,15.92-12.67,29.92-30.47,42.67-51.4,83.79-137.57,85.88-401.42-63.8-481.04-63.66-33.86-134.89-66.37-221.06-77.92-180.09-24.14-305.21-31.79-382.78,35.68Z"></path><path class="cls-26" d="M411.09,107.25c-124.35,112.57-178.96,228.04-189.31,313.96-10.78,89.48-58.22,219.79,75.12,255.53,118.14,31.67,155.17,9.91,193.27-17.26,18.51-13.2,35.89-26.76,53.96-38.9,80.12-53.84,186.49-59.68,266.01-15.62,1.25,.69,2.49,1.39,3.73,2.1,69.75,39.82,173.08,104.04,223.41,64.21,15.78-12.53,29.65-30.05,42.35-50.57,84.4-136.28,87.27-395.1-60.24-474.68-63.17-34.08-134.78-66.66-222.93-77.14-185.46-22.04-310.97-28.99-385.36,38.36Z"></path><path class="cls-36" d="M412.79,111.45c-120.67,113.81-169.22,224.25-178.91,311.16-10.12,90.79-57.54,218.52,74.64,253.1,115.52,30.22,152.75,9.34,191.03-17.36,18.37-12.81,35.6-26.07,53.52-37.93,79.32-52.5,184.06-58.79,262.76-17.02,1.23,.65,2.47,1.32,3.7,1.99,69.11,37.75,170.6,98.96,220.66,59.45,15.63-12.39,29.38-29.63,42.04-49.73,85.01-134.98,88.66-388.79-56.68-468.33-62.68-34.3-134.67-66.95-224.81-76.36-190.83-19.93-316.71-26.15-387.95,41.04Z"></path><path class="cls-19" d="M414.48,115.65c-117,115.11-159.48,220.46-168.51,308.35-9.46,92.11-56.86,217.26,74.15,250.67,112.9,28.79,150.33,8.76,188.78-17.47,18.22-12.43,35.31-25.38,53.09-36.97,78.52-51.16,181.62-57.9,259.52-18.42,1.22,.62,2.45,1.24,3.66,1.88,68.47,35.69,168.11,93.88,217.9,54.69,15.49-12.24,29.11-29.2,41.73-48.9,85.64-133.68,90.05-382.49-53.12-461.97-62.19-34.52-134.57-67.23-226.68-75.58-196.21-17.8-322.44-23.27-390.53,43.72Z"></path><path class="cls-27" d="M416.18,119.85c-113.34,116.47-149.74,216.67-158.11,305.54-8.79,93.43-56.18,216,73.67,248.23,110.28,27.37,147.9,8.18,186.53-17.58,18.08-12.05,35.03-24.69,52.66-36,77.72-49.82,179.19-57.01,256.28-19.82,1.21,.58,2.42,1.17,3.63,1.77,67.82,33.62,165.63,88.8,215.15,49.93,15.34-12.1,28.84-28.78,41.41-48.07,86.28-132.38,91.45-376.19-49.56-455.61-61.69-34.75-134.46-67.5-228.56-74.8-201.59-15.65-328.17-20.34-393.12,46.41Z"></path><path class="cls-18" d="M417.87,124.05c-109.68,117.89-140,212.88-147.7,302.74-8.13,94.75-55.52,214.75,73.19,245.8,107.65,25.97,145.46,7.6,184.29-17.68,17.93-11.68,34.74-24.01,52.23-35.03,76.92-48.49,176.75-56.12,253.04-21.23,1.2,.55,2.4,1.1,3.59,1.67,67.18,31.56,163.15,83.72,212.39,45.16,15.2-11.95,28.57-28.36,41.1-47.23,86.94-131.07,92.86-369.9-45.99-449.25-61.2-34.98-134.35-67.76-230.43-74.02-206.97-13.49-333.87-17.37-395.7,49.09Z"></path><path class="cls-16" d="M419.57,128.25c-106.01,119.37-130.25,209.09-137.3,299.93-7.46,96.07-54.86,213.51,72.71,243.37,105.01,24.58,143.02,7.02,182.04-17.79,17.78-11.3,34.45-23.32,51.8-34.06,76.12-47.15,174.32-55.24,249.8-22.63,1.19,.51,2.37,1.03,3.56,1.56,66.54,29.49,160.66,78.65,209.64,40.4,15.05-11.81,28.31-27.93,40.78-46.4,87.6-129.76,94.26-363.62-42.43-442.9-60.7-35.21-134.24-68.02-232.3-73.25-212.35-11.32-339.56-14.36-398.29,51.77Z"></path><path class="cls-5" d="M421.26,132.45c-102.34,120.93-120.5,205.3-126.9,297.12-6.78,97.39-54.2,212.28,72.23,240.93,102.37,23.2,140.58,6.42,179.8-17.9,17.62-10.93,34.17-22.63,51.37-33.1,75.32-45.82,171.89-54.35,246.56-24.03,1.17,.48,2.35,.96,3.52,1.45,65.89,27.43,158.18,73.57,206.88,35.64,14.91-11.67,28.05-27.5,40.47-45.56,88.28-128.44,95.67-357.34-38.87-436.54-60.21-35.44-134.14-68.27-234.18-72.47-217.72-9.13-345.23-11.31-400.87,54.45Z"></path><path class="cls-29" d="M422.96,136.65c-98.65,122.55-110.75,201.51-116.49,294.32-6.11,98.71-53.55,211.06,71.75,238.5,99.72,21.84,138.13,5.83,177.55-18,17.47-10.56,33.88-21.95,50.94-32.13,74.52-44.49,169.46-53.47,243.31-25.43,1.16,.44,2.33,.88,3.48,1.34,65.25,25.36,155.7,68.49,204.13,30.88,14.76-11.52,27.79-27.07,40.15-44.73,88.97-127.11,97.08-351.08-35.31-430.18-59.71-35.68-134.03-68.52-236.05-71.69-223.1-6.93-350.87-8.2-403.46,57.13Z"></path><path class="cls-42" d="M424.65,140.85c-94.93,124.25-101,197.72-106.09,291.51-5.43,100.03-52.91,209.85,71.27,236.06,97.07,20.5,135.68,5.23,175.3-18.11,17.31-10.2,33.59-21.26,50.51-31.16,73.72-43.16,167.03-52.58,240.07-26.83,1.15,.41,2.3,.81,3.45,1.23,64.61,23.3,153.21,63.41,201.37,26.12,14.62-11.38,27.54-26.65,39.84-43.9,89.68-125.78,98.5-344.82-31.75-423.82-59.21-35.92-133.92-68.76-237.93-70.91-228.48-4.72-356.48-5.05-406.04,59.81Z"></path><path class="cls-8" d="M426.34,145.05c-91.18,126.02-91.24,193.93-95.69,288.7-4.75,101.35-52.27,208.65,70.79,233.63,94.41,19.17,133.22,4.62,173.06-18.22,17.15-9.83,33.3-20.57,50.08-30.2,72.91-41.83,164.6-51.7,236.83-28.23,1.14,.37,2.28,.74,3.41,1.12,63.92,21.36,150.73,58.33,198.62,21.36,14.47-11.24,27.28-26.22,39.52-43.06,90.4-124.45,99.92-338.56-28.19-417.47-58.71-36.16-133.81-69-239.8-70.13-233.85-2.5-362.07-1.86-408.63,62.49Z"></path><path class="cls-2" d="M428.04,149.25c-87.39,127.87-81.49,190.14-85.29,285.9-4.07,102.66-51.65,207.46,70.31,231.2,91.74,17.85,130.76,4.01,170.81-18.33,16.98-9.47,33.01-19.89,49.64-29.23,72.11-40.5,162.17-50.82,233.59-29.63,1.13,.33,2.25,.67,3.38,1.01,63.28,19.3,148.25,53.25,195.86,16.6,14.33-11.09,27.03-25.78,39.21-42.23,91.13-123.1,101.34-332.32-24.62-411.11-58.21-36.41-133.7-69.23-241.68-69.35-239.23-.27-367.61,1.38-411.21,65.17Z"></path><path class="cls-17" d="M429.73,153.45c-83.54,129.79-71.73,186.35-74.88,283.09-3.39,103.98-51.02,206.3,69.83,228.76,89.07,16.56,128.29,3.39,168.56-18.43,16.82-9.12,32.73-19.2,49.21-28.26,71.3-39.17,159.75-49.94,230.35-31.03,1.11,.3,2.23,.6,3.34,.9,62.64,17.24,145.76,48.17,193.11,11.84,14.18-10.95,26.78-25.35,38.89-41.39,91.88-121.74,102.77-326.08-21.06-404.75-57.7-36.66-133.59-69.46-243.55-68.58-244.6,1.97-373.12,4.66-413.8,67.85Z"></path><path class="cls-25" d="M431.43,157.65c-79.63,131.78-61.97,182.57-64.48,280.28-2.71,105.3-50.41,205.14,69.35,226.33,86.4,15.28,125.82,2.76,166.32-18.54,16.65-8.76,32.44-18.52,48.78-27.29,70.49-37.85,157.32-49.06,227.1-32.43,1.1,.26,2.21,.53,3.31,.79,62,15.17,143.28,43.09,190.35,7.07,14.04-10.8,26.54-24.92,38.58-40.56,92.64-120.38,104.2-319.85-17.5-398.39-57.19-36.91-133.48-69.69-245.42-67.8-249.97,4.22-378.59,7.98-416.38,70.54Z"></path><path class="cls-23" d="M433.12,161.85c-75.63,133.85-52.21,178.78-54.08,277.48-2.02,106.62-49.8,204.01,68.87,223.9,83.71,14.03,123.35,2.13,164.07-18.65,16.49-8.41,32.15-17.83,48.35-26.33,69.68-36.52,154.9-48.18,223.86-33.84,1.09,.23,2.18,.45,3.27,.69,61.36,13.11,140.8,38.01,187.6,2.31,13.89-10.66,26.29-24.48,38.26-39.73,93.42-119,105.64-313.63-13.94-392.03-56.68-37.17-133.36-69.91-247.3-67.02-255.33,6.48-384.01,11.34-418.97,73.22Z"></path><path class="cls-7" d="M434.82,166.05c-71.54,135.98-42.45,174.99-43.68,274.67-1.33,107.94-49.2,202.9,68.39,221.46,81.02,12.79,120.87,1.49,161.83-18.75,16.32-8.06,31.86-17.15,47.92-25.36,68.87-35.2,152.47-47.31,220.62-35.24,1.08,.19,2.16,.38,3.24,.58,60.72,11.04,138.32,32.93,184.84-2.45,13.75-10.52,26.05-24.04,37.95-38.89,94.22-117.61,107.08-307.42-10.38-385.68-56.17-37.43-133.25-70.13-249.17-66.24-260.7,8.75-389.38,14.74-421.55,75.9Z"></path><path class="cls-39" d="M436.51,170.25c-67.34,138.19-32.68,171.2-33.27,271.86-.64,109.26-48.6,201.82,67.91,219.03,78.33,11.57,118.39,.84,159.58-18.86,16.14-7.72,31.57-16.46,47.49-24.39,68.06-33.88,150.05-46.44,217.38-36.64,1.07,.16,2.13,.31,3.2,.47,60.08,8.98,135.83,27.86,182.09-7.21,13.6-10.37,25.81-23.6,37.63-38.06,95.04-116.2,108.53-301.21-6.82-379.32-55.66-37.69-133.13-70.35-251.05-65.46-266.06,11.02-394.7,18.16-424.14,78.58Z"></path><path class="cls-20" d="M438.2,174.45c-63.01,140.45-22.92,167.41-22.87,269.06,.05,110.58-48.01,200.76,67.43,216.6,75.63,10.38,115.9,.18,157.33-18.97,15.97-7.38,31.28-15.78,47.06-23.42,67.24-32.57,147.63-45.57,214.14-38.04,1.06,.12,2.11,.24,3.16,.36,59.44,6.91,133.35,22.78,179.33-11.97,13.46-10.23,25.57-23.16,37.32-37.22,95.87-114.78,109.98-295.01-3.25-372.96-55.14-37.96-133.02-70.56-252.92-64.68-271.42,13.3-399.96,21.62-426.72,81.26Z"></path><path class="cls-15" d="M439.9,178.65c-58.55,142.76-13.15,163.62-12.47,266.25,.74,111.9-47.43,199.73,66.95,214.16,72.93,9.21,113.41-.49,155.09-19.07,15.8-7.04,30.99-15.1,46.63-22.46,66.43-31.25,145.21-44.7,210.89-39.44,1.04,.08,2.09,.16,3.13,.25,58.8,4.84,130.87,17.7,176.58-16.73,13.31-10.08,25.34-22.72,37-36.39,96.72-113.35,111.44-288.82,.31-366.6-54.62-38.23-132.9-70.77-254.8-63.91-276.78,15.59-405.17,25.09-429.31,83.94Z"></path><path class="cls-13" d="M441.59,182.85c-53.92,145.11-3.38,159.83-2.07,263.44,1.44,113.21-46.85,198.73,66.47,211.73,70.23,8.06,110.92-1.17,152.84-19.18,15.62-6.71,30.7-14.42,46.2-21.49,65.61-29.94,142.79-43.83,207.65-40.84,1.03,.05,2.06,.09,3.09,.14,58.17,2.77,128.38,12.62,173.82-21.49,13.17-9.94,25.1-22.27,36.69-35.56,97.59-111.89,112.91-282.64,3.87-360.25-54.1-38.5-132.78-70.98-256.67-63.13-282.14,17.88-410.32,28.57-431.89,86.62Z"></path><path class="cls-12" d="M443.29,187.05c-49.12,147.5,6.39,156.04,8.34,260.64,2.13,114.53-46.28,197.77,65.99,209.3,67.52,6.93,108.42-1.86,150.6-19.29,15.44-6.38,30.41-13.74,45.77-20.52,64.8-28.63,140.36-42.97,204.41-42.24,1.02,.01,2.04,.02,3.06,.03,57.53,.7,125.9,7.54,171.07-26.26,13.03-9.8,24.87-21.82,36.37-34.72,98.48-110.42,114.38-276.46,7.43-353.89-53.57-38.78-132.66-71.19-258.55-62.35-287.49,20.18-415.41,32.06-434.48,89.3Z"></path><path class="cls-3" d="M444.98,191.25c-44.14,149.9,16.16,152.24,18.74,257.83,2.83,115.85-45.71,196.86,65.5,206.86,64.81,5.83,105.92-2.57,148.35-19.39,15.27-6.05,30.12-13.05,45.33-19.55,63.98-27.33,137.94-42.11,201.17-43.64,1.01-.02,2.02-.05,3.02-.08,56.89-1.37,123.42,2.46,168.31-31.02,12.88-9.65,24.64-21.37,36.06-33.89,99.39-108.92,115.86-270.3,10.99-347.53-53.04-39.07-132.54-71.39-260.42-61.57-292.84,22.49-420.45,35.55-437.06,91.98Z"></path><path class="cls-6" d="M446.68,195.45c-38.95,152.3,25.93,148.45,29.14,255.02,3.53,117.16-45.14,195.99,65.02,204.43,62.1,4.76,103.42-3.29,146.1-19.5,15.09-5.73,29.83-12.37,44.9-18.59,63.16-26.02,135.52-41.26,197.93-45.04,1-.06,1.99-.13,2.99-.19,56.24-3.55,120.93-2.62,165.56-35.78,12.74-9.51,24.41-20.92,35.74-33.05,100.32-107.4,117.34-264.13,14.56-341.17-52.51-39.36-132.42-71.59-262.29-60.79-298.19,24.8-425.42,39.04-439.65,94.66Z"></path><path class="cls-33" d="M448.37,199.65c-33.54,154.69,35.92,144.65,39.55,252.22,4.46,118.47-44.57,195.18,64.54,202,59.39,3.71,100.91-4.02,143.86-19.61,14.91-5.41,29.53-11.7,44.47-17.62,62.34-24.72,133.09-40.4,194.68-46.44,.98-.1,1.97-.2,2.95-.29,55.6-5.62,118.45-7.7,162.8-40.54,12.59-9.36,24.19-20.47,35.43-32.22,101.27-105.86,118.83-257.98,18.12-334.82-51.97-39.65-132.3-71.79-264.17-60.01-303.54,27.11-430.34,42.5-442.23,97.35Z"></path><path class="cls-14" d="M450.06,203.85c-27.91,157.03,45.67,140.86,49.95,249.41,5.14,119.79-44,194.44,64.06,199.56,56.68,2.69,98.4-4.76,141.61-19.72,14.73-5.1,29.24-11.02,44.04-16.65,61.52-23.43,130.66-39.55,191.44-47.85,.97-.13,1.94-.27,2.91-.4,54.95-7.68,115.97-12.78,160.05-45.3,12.45-9.22,23.96-20.01,35.11-31.39,102.24-104.28,120.33-251.83,21.68-328.46-51.43-39.95-132.18-71.99-266.04-59.24-308.88,29.43-435.2,45.94-444.82,100.03Z"></path><path class="cls-38" d="M451.76,208.05c-22.06,159.32,55.42,137.07,60.35,246.6,5.82,121.11-42.77,184.81,63.58,197.13,53.64,6.21,95.89-5.52,139.37-19.82,14.55-4.79,28.95-10.34,43.61-15.68,60.7-22.13,128.23-38.7,188.2-49.25,.96-.17,1.92-.34,2.88-.51,54.31-9.75,113.48-17.85,157.29-50.06,12.3-9.08,23.74-19.55,34.8-30.55,103.24-102.68,121.84-245.69,25.24-322.1-50.88-40.25-132.05-72.19-267.92-58.46-314.23,31.76-440.01,49.35-447.4,102.71Z"></path><path class="cls-28" d="M453.45,212.25c-15.98,161.53,65.17,133.28,70.75,243.8,6.49,122.42-42.43,185.08,63.1,194.69,51.07,4.65,93.38-6.3,137.12-19.93,14.38-4.48,28.66-9.66,43.18-14.72,59.88-20.84,125.8-37.86,184.96-50.65,.95-.21,1.9-.41,2.84-.62,53.67-11.81,111-22.93,154.54-54.82,12.16-8.93,23.52-19.09,34.49-29.72,104.25-101.04,123.36-239.56,28.8-315.74-50.33-40.55-131.93-72.39-269.79-57.68-319.57,34.09-444.78,52.71-449.99,105.39Z"></path><path class="cls-34" d="M455.15,216.45c-9.67,163.64,74.92,129.49,81.16,240.99,7.17,123.74-42.05,185.66,62.62,192.26,48.49,3.06,90.87-7.09,134.87-20.04,14.2-4.18,28.37-8.99,42.75-13.75,59.06-19.56,123.37-37.01,181.72-52.05,.94-.24,1.87-.49,2.81-.73,53.02-13.88,108.52-28.01,151.78-59.58,12.01-8.79,23.3-18.62,34.17-28.88,105.29-99.37,124.88-233.43,32.36-309.39-49.77-40.86-131.77-72.32-271.67-56.9-324.84,37.03-449.5,56.03-452.57,108.07Z"></path><path class="cls-11" d="M456.84,220.65c-3.15,165.63,84.67,125.69,91.56,238.18,7.85,125.05-41.63,186.59,62.14,189.83,45.89,1.43,88.36-7.9,132.63-20.14,14.02-3.88,28.08-8.31,42.32-12.78,58.24-18.28,120.9-36.27,178.47-53.45,.92-.28,1.85-.56,2.77-.84,52.38-15.94,106.04-33.09,149.03-64.35,11.87-8.65,23.08-18.15,33.86-28.05,106.36-97.66,126.41-227.31,35.93-303.03-49.21-41.18-131.65-72.57-273.54-56.12-330.19,39.22-454.18,59.29-455.16,110.75Z"></path><path class="cls-37" d="M458.54,224.85c3.57,167.46,94.42,121.9,101.96,235.38,8.52,126.37-41.01,192.09,61.66,187.39,43.24-1.98,85.85-8.72,130.38-20.25,13.85-3.58,27.78-7.66,41.89-11.82,57.39-17.1,118.47-35.39,175.23-54.85,.91-.32,1.82-.63,2.74-.95,51.74-18.01,103.55-38.17,146.27-69.11,11.72-8.5,22.86-17.68,33.54-27.22,107.45-95.91,127.95-221.2,39.49-296.67-48.64-41.5-131.53-72.83-275.42-55.34-335.54,41.41-458.83,62.48-457.74,113.43Z"></path><path class="cls-22" d="M460.23,229.05c10.47,169.14,104.18,118.11,112.36,232.57,9.2,127.69-40.33,192.01,61.18,184.96,40.59-2.82,83.34-9.57,128.13-20.36,13.67-3.29,27.49-6.98,41.46-10.85,56.58-15.78,116.04-34.52,171.99-56.25,.9-.35,1.8-.7,2.7-1.06,51.09-20.08,101.07-43.25,143.52-73.87,11.58-8.36,22.64-17.21,33.23-26.38,108.56-94.12,129.63-215.23,43.05-290.31-48-41.9-131.41-73.09-277.29-54.57-340.89,43.6-463.45,65.6-460.33,116.11Z"></path><path class="cls-10" d="M1157.39,452.2c109.69-92.27,131.06-208.98,46.61-283.96-47.49-42.16-131.29-73.34-279.16-53.79-346.24,45.79-468.06,68.65-462.91,118.79,17.52,170.64,113.93,114.32,122.77,229.76,9.88,129-39.6,192.12,60.7,182.53,149.45-14.3,374.56-77.73,512-193.34Z"></path></svg>