<svg xmlns="http://www.w3.org/2000/svg" xmlns:xlink="http://www.w3.org/1999/xlink" id="Layer_1" data-name="Layer 1" viewBox="0 0 1366 768"><defs><style>      .cls-1 {        stroke: url(#New_Gradient_Swatch-6);      }      .cls-1, .cls-2, .cls-3, .cls-4, .cls-5, .cls-6, .cls-7, .cls-8, .cls-9, .cls-10, .cls-11, .cls-12, .cls-13, .cls-14, .cls-15, .cls-16, .cls-17, .cls-18, .cls-19, .cls-20, .cls-21, .cls-22, .cls-23, .cls-24, .cls-25, .cls-26, .cls-27, .cls-28, .cls-29, .cls-30, .cls-31, .cls-32, .cls-33, .cls-34, .cls-35, .cls-36, .cls-37, .cls-38, .cls-39, .cls-40, .cls-41, .cls-42 {        fill: none;        stroke-miterlimit: 10;        stroke-width: .28px;      }      .cls-2 {        stroke: url(#New_Gradient_Swatch-22);      }      .cls-3 {        stroke: url(#New_Gradient_Swatch-32);      }      .cls-4 {        stroke: url(#New_Gradient_Swatch);      }      .cls-5 {        stroke: url(#New_Gradient_Swatch-18);      }      .cls-6 {        stroke: url(#New_Gradient_Swatch-33);      }      .cls-7 {        stroke: url(#New_Gradient_Swatch-26);      }      .cls-8 {        stroke: url(#New_Gradient_Swatch-21);      }      .cls-9 {        stroke: url(#New_Gradient_Swatch-11);      }      .cls-10 {        stroke: url(#New_Gradient_Swatch-42);      }      .cls-11 {        stroke: url(#New_Gradient_Swatch-39);      }      .cls-12 {        stroke: url(#New_Gradient_Swatch-31);      }      .cls-13 {        stroke: url(#New_Gradient_Swatch-30);      }      .cls-14 {        stroke: url(#New_Gradient_Swatch-35);      }      .cls-15 {        stroke: url(#New_Gradient_Swatch-29);      }      .cls-16 {        stroke: url(#New_Gradient_Swatch-17);      }      .cls-17 {        stroke: url(#New_Gradient_Swatch-23);      }      .cls-18 {        stroke: url(#New_Gradient_Swatch-16);      }      .cls-19 {        stroke: url(#New_Gradient_Swatch-14);      }      .cls-20 {        stroke: url(#New_Gradient_Swatch-28);      }      .cls-21 {        stroke: url(#New_Gradient_Swatch-8);      }      .cls-22 {        stroke: url(#New_Gradient_Swatch-41);      }      .cls-23 {        stroke: url(#New_Gradient_Swatch-25);      }      .cls-24 {        stroke: url(#New_Gradient_Swatch-2);      }      .cls-25 {        stroke: url(#New_Gradient_Swatch-24);      }      .cls-26 {        stroke: url(#New_Gradient_Swatch-12);      }      .cls-27 {        stroke: url(#New_Gradient_Swatch-15);      }      .cls-28 {        stroke: url(#New_Gradient_Swatch-37);      }      .cls-29 {        stroke: url(#New_Gradient_Swatch-19);      }      .cls-30 {        stroke: url(#New_Gradient_Swatch-10);      }      .cls-31 {        stroke: url(#New_Gradient_Swatch-7);      }      .cls-32 {        stroke: url(#New_Gradient_Swatch-5);      }      .cls-33 {        stroke: url(#New_Gradient_Swatch-34);      }      .cls-34 {        stroke: url(#New_Gradient_Swatch-38);      }      .cls-35 {        stroke: url(#New_Gradient_Swatch-9);      }      .cls-36 {        stroke: url(#New_Gradient_Swatch-13);      }      .cls-37 {        stroke: url(#New_Gradient_Swatch-40);      }      .cls-38 {        stroke: url(#New_Gradient_Swatch-36);      }      .cls-39 {        stroke: url(#New_Gradient_Swatch-27);      }      .cls-40 {        stroke: url(#New_Gradient_Swatch-3);      }      .cls-41 {        stroke: url(#New_Gradient_Swatch-4);      }      .cls-42 {        stroke: url(#New_Gradient_Swatch-20);      }    </style><linearGradient id="New_Gradient_Swatch" data-name="New Gradient Swatch" x1="682.95" y1="170.16" x2="911.57" y2="170.16" gradientTransform="translate(152.67 981.24) rotate(-62.67)" gradientUnits="userSpaceOnUse"><stop offset="0" stop-color="#c8d5dc"></stop><stop offset=".6" stop-color="#20b4c4"></stop><stop offset="1" stop-color="#126c76"></stop></linearGradient><linearGradient id="New_Gradient_Swatch-2" data-name="New Gradient Swatch" x1="674.08" y1="172.69" x2="913.61" y2="172.69" gradientTransform="translate(148.95 957.31) rotate(-61.41) scale(.99)" xlink:href="#New_Gradient_Swatch"></linearGradient><linearGradient id="New_Gradient_Swatch-3" data-name="New Gradient Swatch" x1="664.89" y1="175.32" x2="915.87" y2="175.32" gradientTransform="translate(145.23 933.37) rotate(-60.12) scale(.97)" xlink:href="#New_Gradient_Swatch"></linearGradient><linearGradient id="New_Gradient_Swatch-4" data-name="New Gradient Swatch" x1="655.39" y1="178.11" x2="918.37" y2="178.11" gradientTransform="translate(141.5 909.44) rotate(-58.8) scale(.96)" xlink:href="#New_Gradient_Swatch"></linearGradient><linearGradient id="New_Gradient_Swatch-5" data-name="New Gradient Swatch" x1="645.53" y1="181.09" x2="921.09" y2="181.09" gradientTransform="translate(137.78 885.51) rotate(-57.44) scale(.95)" xlink:href="#New_Gradient_Swatch"></linearGradient><linearGradient id="New_Gradient_Swatch-6" data-name="New Gradient Swatch" x1="635.24" y1="184.3" x2="924.05" y2="184.3" gradientTransform="translate(134.06 861.58) rotate(-56.05) scale(.94)" xlink:href="#New_Gradient_Swatch"></linearGradient><linearGradient id="New_Gradient_Swatch-7" data-name="New Gradient Swatch" x1="624.32" y1="187.75" x2="927.24" y2="187.75" gradientTransform="translate(130.33 837.64) rotate(-54.63) scale(.93)" xlink:href="#New_Gradient_Swatch"></linearGradient><linearGradient id="New_Gradient_Swatch-8" data-name="New Gradient Swatch" x1="611.86" y1="191.47" x2="930.67" y2="191.47" gradientTransform="translate(126.61 813.71) rotate(-53.18) scale(.92)" xlink:href="#New_Gradient_Swatch"></linearGradient><linearGradient id="New_Gradient_Swatch-9" data-name="New Gradient Swatch" x1="598.37" y1="194.45" x2="934.33" y2="194.45" gradientTransform="translate(122.88 789.78) rotate(-51.7) scale(.91)" xlink:href="#New_Gradient_Swatch"></linearGradient><linearGradient id="New_Gradient_Swatch-10" data-name="New Gradient Swatch" x1="584.75" y1="197.17" x2="938.2" y2="197.17" gradientTransform="translate(119.16 765.85) rotate(-50.19) scale(.9)" xlink:href="#New_Gradient_Swatch"></linearGradient><linearGradient id="New_Gradient_Swatch-11" data-name="New Gradient Swatch" x1="571.1" y1="200.41" x2="942.29" y2="200.41" gradientTransform="translate(115.44 741.91) rotate(-48.66) scale(.89)" xlink:href="#New_Gradient_Swatch"></linearGradient><linearGradient id="New_Gradient_Swatch-12" data-name="New Gradient Swatch" x1="557.55" y1="204.45" x2="946.59" y2="204.45" gradientTransform="translate(111.71 717.98) rotate(-47.09) scale(.89)" xlink:href="#New_Gradient_Swatch"></linearGradient><linearGradient id="New_Gradient_Swatch-13" data-name="New Gradient Swatch" x1="544.18" y1="209.45" x2="951.07" y2="209.45" gradientTransform="translate(107.99 694.05) rotate(-45.5) scale(.88)" xlink:href="#New_Gradient_Swatch"></linearGradient><linearGradient id="New_Gradient_Swatch-14" data-name="New Gradient Swatch" x1="531.1" y1="214.94" x2="955.73" y2="214.94" gradientTransform="translate(104.27 670.11) rotate(-43.89) scale(.88)" xlink:href="#New_Gradient_Swatch"></linearGradient><linearGradient id="New_Gradient_Swatch-15" data-name="New Gradient Swatch" x1="518.38" y1="220.89" x2="960.55" y2="220.89" gradientTransform="translate(100.54 646.18) rotate(-42.26) scale(.87)" xlink:href="#New_Gradient_Swatch"></linearGradient><linearGradient id="New_Gradient_Swatch-16" data-name="New Gradient Swatch" x1="506.13" y1="227.28" x2="965.5" y2="227.28" gradientTransform="translate(96.82 622.25) rotate(-40.61) scale(.87)" xlink:href="#New_Gradient_Swatch"></linearGradient><linearGradient id="New_Gradient_Swatch-17" data-name="New Gradient Swatch" x1="494.41" y1="234.06" x2="970.57" y2="234.06" gradientTransform="translate(93.09 598.32) rotate(-38.95) scale(.86)" xlink:href="#New_Gradient_Swatch"></linearGradient><linearGradient id="New_Gradient_Swatch-18" data-name="New Gradient Swatch" x1="483.3" y1="241.22" x2="975.73" y2="241.22" gradientTransform="translate(89.37 574.38) rotate(-37.27) scale(.86)" xlink:href="#New_Gradient_Swatch"></linearGradient><linearGradient id="New_Gradient_Swatch-19" data-name="New Gradient Swatch" x1="472.88" y1="248.7" x2="980.96" y2="248.7" gradientTransform="translate(85.65 550.45) rotate(-35.58) scale(.86)" xlink:href="#New_Gradient_Swatch"></linearGradient><linearGradient id="New_Gradient_Swatch-20" data-name="New Gradient Swatch" x1="463.22" y1="256.48" x2="986.23" y2="256.48" gradientTransform="translate(81.92 526.52) rotate(-33.89) scale(.85)" xlink:href="#New_Gradient_Swatch"></linearGradient><linearGradient id="New_Gradient_Swatch-21" data-name="New Gradient Swatch" x1="454.37" y1="264.51" x2="991.52" y2="264.51" gradientTransform="translate(78.2 502.59) rotate(-32.19) scale(.85)" xlink:href="#New_Gradient_Swatch"></linearGradient><linearGradient id="New_Gradient_Swatch-22" data-name="New Gradient Swatch" x1="446.38" y1="272.75" x2="996.8" y2="272.75" gradientTransform="translate(74.48 478.65) rotate(-30.48) scale(.85)" xlink:href="#New_Gradient_Swatch"></linearGradient><linearGradient id="New_Gradient_Swatch-23" data-name="New Gradient Swatch" x1="439.29" y1="281.14" x2="1002.04" y2="281.14" gradientTransform="translate(70.75 454.72) rotate(-28.78) scale(.85)" xlink:href="#New_Gradient_Swatch"></linearGradient><linearGradient id="New_Gradient_Swatch-24" data-name="New Gradient Swatch" x1="433.12" y1="289.65" x2="1007.22" y2="289.65" gradientTransform="translate(67.03 430.79) rotate(-27.09) scale(.86)" xlink:href="#New_Gradient_Swatch"></linearGradient><linearGradient id="New_Gradient_Swatch-25" data-name="New Gradient Swatch" x1="427.91" y1="298.22" x2="1012.31" y2="298.22" gradientTransform="translate(63.3 406.86) rotate(-25.4) scale(.86)" xlink:href="#New_Gradient_Swatch"></linearGradient><linearGradient id="New_Gradient_Swatch-26" data-name="New Gradient Swatch" x1="416.89" y1="306.81" x2="1017.29" y2="306.81" gradientTransform="translate(59.58 382.92) rotate(-23.72) scale(.86)" xlink:href="#New_Gradient_Swatch"></linearGradient><linearGradient id="New_Gradient_Swatch-27" data-name="New Gradient Swatch" x1="404.73" y1="315.37" x2="1022.14" y2="315.37" gradientTransform="translate(55.86 358.99) rotate(-22.06) scale(.87)" xlink:href="#New_Gradient_Swatch"></linearGradient><linearGradient id="New_Gradient_Swatch-28" data-name="New Gradient Swatch" x1="393.1" y1="323.33" x2="1026.84" y2="323.33" gradientTransform="translate(52.13 335.06) rotate(-20.41) scale(.87)" xlink:href="#New_Gradient_Swatch"></linearGradient><linearGradient id="New_Gradient_Swatch-29" data-name="New Gradient Swatch" x1="382.04" y1="329.74" x2="1031.37" y2="329.74" gradientTransform="translate(48.41 311.12) rotate(-18.78) scale(.88)" xlink:href="#New_Gradient_Swatch"></linearGradient><linearGradient id="New_Gradient_Swatch-30" data-name="New Gradient Swatch" x1="371.56" y1="335.87" x2="1035.72" y2="335.87" gradientTransform="translate(44.69 287.19) rotate(-17.17) scale(.88)" xlink:href="#New_Gradient_Swatch"></linearGradient><linearGradient id="New_Gradient_Swatch-31" data-name="New Gradient Swatch" x1="361.71" y1="341.69" x2="1039.87" y2="341.69" gradientTransform="translate(40.96 263.26) rotate(-15.58) scale(.89)" xlink:href="#New_Gradient_Swatch"></linearGradient><linearGradient id="New_Gradient_Swatch-32" data-name="New Gradient Swatch" x1="352.49" y1="347.2" x2="1043.82" y2="347.2" gradientTransform="translate(37.24 239.33) rotate(-14.02) scale(.89)" xlink:href="#New_Gradient_Swatch"></linearGradient><linearGradient id="New_Gradient_Swatch-33" data-name="New Gradient Swatch" x1="343.92" y1="352.38" x2="1047.55" y2="352.38" gradientTransform="translate(33.51 215.39) rotate(-12.48) scale(.9)" xlink:href="#New_Gradient_Swatch"></linearGradient><linearGradient id="New_Gradient_Swatch-34" data-name="New Gradient Swatch" x1="335.99" y1="357.23" x2="1051.06" y2="357.23" gradientTransform="translate(29.79 191.46) rotate(-10.97) scale(.91)" xlink:href="#New_Gradient_Swatch"></linearGradient><linearGradient id="New_Gradient_Swatch-35" data-name="New Gradient Swatch" x1="328.71" y1="361.71" x2="1054.35" y2="361.71" gradientTransform="translate(26.07 167.53) rotate(-9.49) scale(.92)" xlink:href="#New_Gradient_Swatch"></linearGradient><linearGradient id="New_Gradient_Swatch-36" data-name="New Gradient Swatch" x1="322.07" y1="365.88" x2="1057.42" y2="365.88" gradientTransform="translate(22.34 143.6) rotate(-8.04) scale(.93)" xlink:href="#New_Gradient_Swatch"></linearGradient><linearGradient id="New_Gradient_Swatch-37" data-name="New Gradient Swatch" x1="316.11" y1="369.7" x2="1060.27" y2="369.7" gradientTransform="translate(18.62 119.66) rotate(-6.62) scale(.94)" xlink:href="#New_Gradient_Swatch"></linearGradient><linearGradient id="New_Gradient_Swatch-38" data-name="New Gradient Swatch" x1="310.68" y1="373.2" x2="1062.9" y2="373.2" gradientTransform="translate(14.9 95.73) rotate(-5.23) scale(.95)" xlink:href="#New_Gradient_Swatch"></linearGradient><linearGradient id="New_Gradient_Swatch-39" data-name="New Gradient Swatch" x1="305.85" y1="376.37" x2="1065.32" y2="376.37" gradientTransform="translate(11.17 71.8) rotate(-3.87) scale(.96)" xlink:href="#New_Gradient_Swatch"></linearGradient><linearGradient id="New_Gradient_Swatch-40" data-name="New Gradient Swatch" x1="301.59" y1="379.22" x2="1067.53" y2="379.22" gradientTransform="translate(7.45 47.87) rotate(-2.55) scale(.97)" xlink:href="#New_Gradient_Swatch"></linearGradient><linearGradient id="New_Gradient_Swatch-41" data-name="New Gradient Swatch" x1="297.86" y1="381.76" x2="1069.54" y2="381.76" gradientTransform="translate(3.72 23.93) rotate(-1.26) scale(.99)" xlink:href="#New_Gradient_Swatch"></linearGradient><linearGradient id="New_Gradient_Swatch-42" data-name="New Gradient Swatch" x1="294.64" y1="384" x2="1071.36" y2="384" gradientTransform="matrix(1, 0, 0, 1, 0, 0)" xlink:href="#New_Gradient_Swatch"></linearGradient></defs><path class="cls-4" d="M636.22,395.25s-44.47,18.82-47.07-14.7c-2.07-26.66,19.29-18.44,26.2-16.91,6.91,1.53,21.39,7.67,25.13-2.37,3.74-10.04-.64-17.49-23.03-34.08-22.39-16.59-27.73-30.81-20.84-39.91,6.88-9.1,24.32-7.97,44.22,6.08,19.89,14.05,26.53,16.56,34.91,10.3,8.38-6.26,10.79-27.11,17.67-34.23s15.15-13.16,29.01-15.88,48.06,19.47,3.53,73.5c-44.53,54.02-17.21,43.84-9.74,40.17s30.02-23.36,39.1,5.16c9.07,28.53-15.38,29.45-30.19,27.38-14.81-2.07-24.63-7.46-31.91,19.22-7.28,26.67-19.84,47.96-42.47,46.94-22.63-1.01-30.92-18.76-25.72-33.35,5.2-14.59,25.56-17.28,25.64-26.85,.08-9.58-2.98-12.53-14.45-10.47Z"></path><path class="cls-24" d="M616.88,323.75c-21.55-16.57-27.51-34.6-17.7-43.05s24.99-5.44,44.07,8.88c19.08,14.33,24.59,18,33.63,12.51,9.04-5.49,12.21-26.06,21.1-34.7s18.45-14.69,32.66-16.44c14.21-1.75,47.02,21.53,1.71,75.77-45.31,54.24-19.06,44.87-11.4,42.26,7.67-2.61,31.6-21.05,40.95,7.62,9.35,28.68-14.14,30.53-28.69,29.9-14.55-.63-27.15-3.19-38.25,17.16-11.1,20.35-23.1,44-45.02,43.82-21.93-.18-28.72-14.82-26.61-28.93,2.11-14.11,22.52-19.1,23.19-29.8,.67-10.71-1.55-14.38-15.1-13.77-2.36-1.39-47.55,15.22-49.3-19.63-1.41-28.14,21.42-20.46,29.42-18.08,8,2.38,21.85,10.38,26.42,.84,4.56-9.54,.95-17.41-21.09-34.36Z"></path><path class="cls-40" d="M616.3,320.31c-20.72-16.52-27.41-38.39-14.55-46.19,11.99-7.28,25.65-2.92,43.92,11.68,18.27,14.6,22.65,19.44,32.35,14.73,9.7-4.71,13.64-25,24.54-35.18,10.9-10.18,21.75-16.21,36.32-17,14.56-.79,45.97,23.59-.12,78.05-46.08,54.45-20.92,45.9-13.06,44.35s33.18-18.74,42.81,10.08c9.63,28.83-12.9,31.6-27.2,32.42-14.3,.82-29.67,1.08-44.59,15.11-14.92,14.03-26.35,40.03-47.57,40.69-21.22,.66-26.51-10.88-27.5-24.51-.98-13.63,19.49-20.92,20.74-32.75,1.25-11.84-.12-16.24-15.75-17.07-4.72-2.79-50.62,11.6-51.53-24.56-.74-29.63,23.56-22.47,32.65-19.26,9.09,3.22,22.31,13.08,27.7,4.05,5.39-9.03,2.57-17.31-19.15-34.63Z"></path><path class="cls-41" d="M615.72,316.87c-19.9-16.46-27.37-42.23-11.4-49.34,14.43-6.43,26.32-.4,43.77,14.48,17.45,14.88,20.71,20.88,31.06,16.94,10.36-3.94,15.07-23.94,27.97-35.65,12.9-11.71,25.06-17.73,39.97-17.56,14.92,.17,44.92,25.65-1.94,80.32-46.86,54.67-22.78,46.94-14.72,46.44,8.06-.5,34.76-16.43,44.67,12.54,9.91,28.97-11.66,32.68-25.7,34.94-14.04,2.27-32.19,5.35-50.93,13.05-18.74,7.7-29.61,36.07-50.12,37.56-20.51,1.49-24.31-6.94-28.39-20.1-4.08-13.16,16.45-22.74,18.28-35.7s1.31-18.09-16.4-20.36c-7.08-4.18-53.68,7.99-53.76-29.49-.07-31.12,25.69-24.49,35.87-20.43,10.18,4.06,22.77,15.79,28.98,7.27s4.21-17.2-17.21-34.91Z"></path><path class="cls-32" d="M615.14,313.43c-19.09-16.37-27.35-46.11-8.26-52.48,16.84-5.62,26.98,2.12,43.63,17.28,16.64,15.16,18.77,22.32,29.78,19.15,11.01-3.17,16.49-22.88,31.4-36.13,14.9-13.25,28.36-19.26,43.63-18.12s43.87,27.71-3.77,82.6c-47.64,54.89-24.64,47.97-16.38,48.52,8.26,.55,36.34-14.12,46.52,15,10.19,29.12-10.43,33.75-24.21,37.46-13.78,3.71-34.71,9.62-57.27,11-22.57,1.38-32.87,32.11-52.67,34.43-19.81,2.33-22.11-3-29.28-15.68-7.17-12.68,13.41-24.55,15.83-38.65,2.42-14.09,1.8-16.57-17.05-23.66-10.26-3.86-56.72,4.37-55.99-34.43,.62-32.62,27.82-26.51,39.09-21.6,11.27,4.9,23.23,18.5,30.27,10.48,7.03-8.03,5.86-17.07-15.27-35.19Z"></path><path class="cls-1" d="M614.56,309.99c-18.29-16.25-27.35-50.03-5.11-55.62,19.24-4.84,27.65,4.64,43.48,20.08,15.83,15.44,16.83,23.76,28.5,21.37s17.92-21.82,34.83-36.6c16.91-14.78,31.66-20.78,47.28-18.68s42.83,29.77-5.59,84.88c-48.42,55.1-26.5,49.01-18.04,50.61,8.46,1.61,37.91-11.81,48.38,17.46s-9.19,34.82-22.71,39.99c-13.52,5.16-37.23,13.88-63.62,8.94-26.39-4.94-36.13,28.15-55.22,31.31-19.1,3.16-19.91,.94-30.17-11.26-10.26-12.2,10.37-26.37,13.38-41.6,3-15.22,3.15-18.57-17.7-26.96-12.71-5.12-59.76,.75-58.22-39.36,1.31-34.11,29.96-28.52,42.32-22.78,12.36,5.74,23.7,21.21,31.55,13.69,7.85-7.52,7.54-16.92-13.33-35.46Z"></path><path class="cls-31" d="M613.99,306.55c-17.5-16.11-27.35-53.97-1.97-58.77,21.64-4.09,28.31,7.16,43.33,22.88,15.02,15.72,14.89,25.2,27.22,23.58,12.33-1.62,19.35-20.77,38.26-37.08,18.91-16.31,34.96-22.3,50.94-19.24,15.97,3.06,41.78,31.83-7.42,87.15-49.2,55.32-28.36,50.04-19.7,52.7,8.65,2.66,39.49-9.5,50.24,19.92,10.74,29.42-7.95,35.9-21.22,42.51-13.26,6.61-39.75,18.15-69.96,6.89-30.21-11.27-39.38,24.18-57.77,28.18-18.39,4-17.7,4.88-31.06-6.85-13.35-11.73,7.34-28.19,10.92-44.54,3.59-16.35,4.52-20.55-18.35-30.26-15.14-6.43-62.78-2.87-60.44-44.29,2.01-35.61,32.09-30.54,45.54-23.95,13.45,6.58,24.16,23.92,32.83,16.9,8.68-7.02,9.24-16.76-11.39-35.74Z"></path><path class="cls-21" d="M613.41,303.11c-16.73-15.94-27.34-57.94,1.18-61.91,24.04-3.35,28.98,9.69,43.18,25.68,14.2,15.99,12.95,26.64,25.93,25.8,12.99-.85,20.77-19.71,41.69-37.56s38.27-23.83,54.59-19.8c16.32,4.03,40.73,33.89-9.24,89.43-49.97,55.54-30.21,51.08-21.37,54.79,8.85,3.72,41.07-7.19,52.09,22.38,11.02,29.57-6.72,36.97-19.72,45.03-13.01,8.05-42.27,22.42-76.3,4.83-34.03-17.59-42.64,20.22-60.32,25.05-17.68,4.83-15.5,8.82-31.95-2.43-16.44-11.25,4.3-30.01,8.47-47.49,4.17-17.48,5.92-22.53-19-33.56-17.54-7.77-65.8-6.49-62.67-49.22,2.71-37.1,34.22-32.55,48.76-25.13,14.54,7.43,24.62,26.63,34.12,20.12,9.5-6.52,10.95-16.57-9.45-36.02Z"></path><path class="cls-35" d="M612.83,299.67c-15.97-15.75-27.33-61.92,4.33-65.05,26.45-2.62,29.65,12.21,43.04,28.48,13.39,16.27,11.01,28.09,24.65,28.01,13.64-.07,22.2-18.65,45.12-38.03,22.92-19.38,41.57-25.35,58.24-20.36,16.67,4.99,39.68,35.95-11.07,91.71-50.75,55.76-32.07,52.11-23.03,56.88s42.65-4.88,53.95,24.84c11.3,29.72-5.48,38.05-18.23,47.55-12.75,9.5-44.79,26.69-82.64,2.78-37.86-23.91-45.9,16.26-62.88,21.92-16.98,5.67-13.3,12.76-32.84,1.99-19.54-10.77,1.26-31.83,6.02-50.44,4.76-18.61,7.33-24.5-19.65-36.86-19.93-9.13-68.81-10.11-64.9-54.16,3.43-38.6,36.35-34.57,51.98-26.3,15.63,8.27,25.08,29.34,35.4,23.33,10.32-6.01,12.69-16.37-7.5-36.29Z"></path><path class="cls-30" d="M612.25,296.23c-15.22-15.53-27.32-65.91,7.47-68.19,28.86-1.9,30.31,14.73,42.89,31.28,12.58,16.55,9.07,29.53,23.37,30.23s23.63-17.59,48.55-38.51c24.93-20.91,44.87-26.88,61.9-20.92,17.03,5.95,38.64,38.01-12.89,93.98-51.53,55.97-33.93,53.14-24.69,58.97,9.24,5.83,44.23-2.56,55.81,27.3,11.58,29.87-4.24,39.12-16.73,50.07-12.49,10.95-47.31,30.96-88.99,.72-41.68-30.23-49.16,12.29-65.43,18.8-16.27,6.5-11.1,16.7-33.73,6.4-22.63-10.3-1.77-33.65,3.57-53.39,5.34-19.73,8.75-26.46-20.3-40.16-22.31-10.52-71.82-13.73-67.13-59.09,4.14-40.1,38.49-36.58,55.21-27.47,16.72,9.11,25.54,32.05,36.68,26.54,11.14-5.51,14.44-16.16-5.56-36.57Z"></path><path class="cls-9" d="M611.68,292.79c-14.49-15.29-27.3-69.9,10.62-71.34,31.27-1.18,30.98,17.25,42.74,34.08,11.77,16.83,7.13,30.97,22.09,32.44s25.05-16.53,51.98-38.98,48.18-28.4,65.55-21.49,37.59,40.07-14.72,96.26c-52.31,56.19-35.79,54.18-26.35,61.06s45.8-.25,57.66,29.76c11.86,30.02-3,40.2-15.24,52.6-12.23,12.4-49.83,35.22-95.33-1.33-45.5-36.56-52.41,8.33-67.98,15.67-15.56,7.34-8.9,20.64-34.62,10.82-25.72-9.82-4.81-35.47,1.11-56.34s10.18-28.42-20.95-43.45c-24.68-11.92-74.82-17.35-69.36-64.02,4.86-41.59,40.62-38.6,58.43-28.65,17.81,9.95,26,34.76,37.97,29.76,11.97-5,16.21-15.92-3.62-36.85Z"></path><path class="cls-26" d="M611.1,289.35c-16.38-12.14-27.22-72.24,13.77-74.48,33.64-1.84,31.64,19.77,42.59,36.88,10.95,17.11,5.19,32.41,20.8,34.65,15.62,2.25,26.48-15.48,55.41-39.46s51.48-29.92,69.21-22.05c17.73,7.88,36.54,42.13-16.54,98.53-53.09,56.41-37.65,55.21-28.01,63.15,9.64,7.94,47.38,2.06,59.52,32.22,12.14,30.17-1.77,41.27-13.74,55.12s-52.35,39.49-101.67-3.39c-49.32-42.88-55.67,4.37-70.53,12.54-14.86,8.17-6.69,24.58-35.51,15.24-28.81-9.35-7.85-37.29-1.34-59.29,6.51-21.99,11.62-30.37-21.6-46.75-27.04-13.34-77.81-20.97-71.59-68.95,5.59-43.09,42.75-40.62,61.65-29.82,18.9,10.79,26.46,37.47,39.25,32.97,12.79-4.5,13.56-12.33-1.68-37.12Z"></path><path class="cls-36" d="M610.52,285.91c-15.84-11.73-27.23-76.27,16.91-77.62,36.1-1.11,32.31,22.3,42.45,39.68,10.14,17.38,3.25,33.85,19.52,36.87,16.27,3.02,27.91-14.42,58.84-39.93,30.94-25.51,54.78-31.45,72.86-22.61,18.08,8.84,35.5,44.19-18.37,100.81-53.87,56.62-39.51,56.25-29.67,65.24,9.84,8.99,48.96,4.37,61.38,34.69,12.42,30.32-.53,42.35-12.25,57.64-11.72,15.29-54.87,43.76-108.01-5.44-53.15-49.2-58.93,.41-73.08,9.41-14.15,9.01-4.49,28.52-36.4,19.65s-10.89-39.11-3.79-62.23c7.09-23.12,13.06-32.33-22.25-50.05-29.39-14.76-80.8-24.59-73.82-73.88,6.32-44.58,44.89-42.63,64.88-30.99,19.99,11.64,26.92,40.18,40.53,36.18,13.61-4,14.86-11.86,.26-37.4Z"></path><path class="cls-19" d="M609.94,282.47c-15.29-11.33-27.23-81.92,20.06-80.77,38.54,.94,32.97,24.82,42.3,42.48,9.33,17.66,1.31,35.29,18.24,39.08,16.93,3.79,29.33-13.36,62.28-40.41,32.94-27.05,58.08-32.97,76.52-23.17,18.43,9.8,34.45,46.25-20.2,103.09-54.64,56.84-41.36,57.28-31.33,67.33,10.03,10.05,50.54,6.68,63.23,37.15s.71,43.42-10.75,60.16c-11.46,16.74-57.39,48.03-114.36-7.5-56.97-55.53-62.19-3.56-75.63,6.28-13.44,9.84-2.29,32.46-37.29,24.07-35-8.39-13.92-40.93-6.25-65.18,7.68-24.25,14.51-34.28-22.9-53.35-31.74-16.19-83.79-28.21-76.05-78.82,7.05-46.08,47.02-44.65,68.1-32.17,21.08,12.48,27.38,42.89,41.82,39.4,14.43-3.49,16.15-11.39,2.2-37.67Z"></path><path class="cls-27" d="M609.36,279.03c-14.75-10.92-27.2-85.94,23.2-83.91,40.96,1.65,33.64,27.34,42.15,45.28,8.51,17.94-.63,36.73,16.96,41.3,17.59,4.57,30.76-12.3,65.71-40.88,34.95-28.58,61.39-34.49,80.17-23.73,18.78,10.76,33.4,48.31-22.02,105.36-55.42,57.06-43.22,58.31-32.99,69.42s52.12,8.99,65.09,39.61c12.97,30.61,1.94,44.5-9.26,62.68-11.2,18.18-59.91,52.3-120.7-9.55-60.79-61.85-65.44-7.52-78.18,3.16-12.73,10.68-.09,36.4-38.18,28.49-38.09-7.92-16.96-42.75-8.7-68.13,8.26-25.38,15.96-36.23-23.55-56.65-34.09-17.62-86.77-31.83-78.28-83.75,7.78-47.57,49.15-46.66,71.32-33.34,22.17,13.32,27.84,45.6,43.1,42.61,15.26-2.99,17.44-10.92,4.14-37.95Z"></path><path class="cls-18" d="M608.79,275.59c-14.2-10.52-27.17-89.95,26.35-87.05,43.39,2.35,34.3,29.86,42,48.08,7.7,18.22-2.57,38.17,15.67,43.51,18.25,5.34,32.18-11.25,69.14-41.36,36.95-30.11,64.69-36.02,83.83-24.29,19.13,11.73,32.35,50.37-23.85,107.64-56.2,57.27-45.08,59.35-34.65,71.51,10.43,12.16,53.69,11.3,66.95,42.07,13.25,30.76,3.18,45.57-7.76,65.2-10.94,19.63-62.43,56.56-127.04-11.61-64.61-68.17-68.7-11.48-80.73,.03-12.03,11.51,2.12,40.34-39.07,32.9-41.18-7.44-20-44.57-11.15-71.08,8.84-26.5,17.41-38.17-24.2-59.95-36.43-19.06-89.75-35.45-80.51-88.68,8.52-49.06,51.28-48.68,74.55-34.52,23.26,14.16,28.31,48.31,44.39,45.82,16.08-2.49,18.73-10.45,6.08-38.23Z"></path><path class="cls-16" d="M608.21,272.14c-13.65-10.11-27.13-93.97,29.5-90.2,45.82,3.05,34.97,32.38,41.86,50.88,6.89,18.5-4.51,39.61,14.39,45.73,18.9,6.11,33.61-10.19,72.57-41.84,38.96-31.65,67.99-37.54,87.48-24.85,19.49,12.69,31.31,52.43-25.67,109.92-56.98,57.49-46.94,60.38-36.32,73.59,10.62,13.21,55.27,13.61,68.8,44.53,13.53,30.91,4.42,46.65-6.27,67.73-10.69,21.08-64.95,60.83-133.38-13.66-68.44-74.49-71.96-15.45-83.28-3.1-11.32,12.35,4.32,44.28-39.96,37.32-44.28-6.96-23.03-46.39-13.61-74.03s18.87-40.12-24.85-63.25c-38.76-20.51-92.73-39.06-82.73-93.61,9.26-50.56,53.42-50.69,77.77-35.69,24.35,15,28.77,51.02,45.67,49.03,16.9-1.98,20.02-9.98,8.02-38.5Z"></path><path class="cls-5" d="M607.63,268.7c-13.11-9.71-27.1-97.99,32.64-93.34,48.25,3.75,35.63,34.9,41.71,53.68,6.08,18.77-6.45,41.05,13.11,47.94,19.56,6.89,35.04-9.13,76-42.31,40.96-33.18,71.3-39.07,91.13-25.41,19.84,13.65,30.26,54.49-27.5,112.19s-48.8,61.42-37.98,75.68c10.82,14.27,56.85,15.93,70.66,46.99,13.81,31.06,5.65,47.72-4.77,70.25-10.43,22.53-67.47,65.1-139.73-15.72-72.26-80.82-75.21-19.41-85.83-6.23-10.61,13.18,6.52,48.22-40.85,41.74-47.37-6.49-26.07-48.21-16.06-76.98,10.01-28.76,20.33-42.06-25.49-66.55-41.1-21.96-95.71-42.68-84.96-98.54,10.01-52.05,55.55-52.71,80.99-36.86,25.44,15.85,29.23,53.73,46.95,52.25s21.31-9.51,9.96-38.78Z"></path><path class="cls-29" d="M607.05,265.26c-12.56-9.31-27.06-102,35.79-96.48,50.68,4.45,36.3,37.43,41.56,56.48,5.26,19.05-8.39,42.49,11.83,50.15,20.22,7.66,36.46-8.07,79.43-42.79,42.97-34.71,74.6-40.59,94.79-25.97,20.19,14.62,29.21,56.54-29.32,114.47s-50.66,62.45-39.64,77.77c11.02,15.32,58.43,18.24,72.52,49.45,14.09,31.21,6.89,48.8-3.28,72.77s-69.99,69.37-146.07-17.77-78.47-23.37-88.38-9.35c-9.9,14.02,8.72,52.16-41.74,46.15-50.46-6.01-29.11-50.03-18.51-79.92,10.6-29.89,21.79-44.01-26.14-69.84-43.43-23.41-98.68-46.29-87.19-103.48,10.75-53.54,57.68-54.72,84.21-38.04,26.53,16.69,29.69,56.44,48.24,55.46,18.55-.98,22.6-9.04,11.91-39.06Z"></path><path class="cls-42" d="M606.47,261.82c-12.01-8.9-27.02-106.02,38.94-99.62,53.11,5.15,36.96,39.95,41.41,59.28,4.45,19.33-10.33,43.94,10.54,52.37s37.89-7.01,82.86-43.26c44.97-36.25,77.9-42.11,98.44-26.54,20.54,15.58,28.16,58.6-31.15,116.75s-52.51,63.49-41.3,79.86c11.21,16.38,60.01,20.55,74.37,51.91,14.37,31.36,8.13,49.87-1.78,75.29-9.91,25.42-72.51,73.64-152.41-19.83-79.9-93.46-81.73-27.33-90.93-12.48-9.2,14.85,10.93,56.1-42.63,50.57-53.55-5.53-32.15-51.85-20.96-82.87,11.18-31.02,23.26-45.95-26.79-73.14-45.76-24.86-101.65-49.91-89.42-108.41,11.5-55.03,59.82-56.74,87.44-39.21,27.62,17.53,30.15,59.15,49.52,58.67,19.37-.47,23.9-8.57,13.85-39.33Z"></path><path class="cls-8" d="M605.9,258.38c-11.47-8.5-26.99-110.04,42.08-102.77,55.54,5.85,37.63,42.47,41.27,62.08,3.64,19.61-12.27,45.38,9.26,54.58s39.32-5.96,86.29-43.74,81.21-43.64,102.1-27.1c20.89,16.54,27.12,60.66-32.97,119.02-60.09,58.36-54.37,64.52-42.96,81.95,11.41,17.43,61.58,22.86,76.23,54.37,14.65,31.51,9.37,50.95-.29,77.81-9.66,26.87-75.03,77.9-158.75-21.88-83.73-99.79-84.99-31.3-93.48-15.61-8.49,15.69,13.13,60.04-43.52,54.99-56.64-5.06-35.18-53.67-23.42-85.82s24.72-47.89-27.44-76.44c-48.09-26.32-104.62-53.52-91.65-113.34,12.25-56.52,61.95-58.76,90.66-40.38,28.71,18.37,30.61,61.86,50.8,61.89,20.19,.03,25.19-8.1,15.79-39.61Z"></path><path class="cls-2" d="M605.32,254.94c-10.92-8.09-26.95-114.07,45.23-105.91,57.98,6.55,38.3,44.99,41.12,64.88s-14.21,46.82,7.98,56.8,40.74-4.9,89.72-44.21,84.51-45.16,105.75-27.66c21.24,17.5,26.07,62.72-34.8,121.3s-56.23,65.55-44.62,84.04c11.61,18.49,63.16,25.17,78.09,56.83,14.93,31.66,10.6,52.02,1.21,80.34-9.4,28.31-77.55,82.17-165.09-23.94-87.55-106.11-88.24-35.26-96.03-18.74-7.78,16.52,15.33,63.99-44.41,59.4-59.74-4.58-38.22-55.49-25.87-88.77,12.35-33.28,26.19-49.83-28.09-79.74-50.41-27.78-107.59-57.13-93.88-118.27,13-58.01,64.08-60.77,93.88-41.56,29.8,19.21,31.07,64.57,52.09,65.1,21.01,.53,26.48-7.63,17.73-39.89Z"></path><path class="cls-17" d="M604.74,251.5c-10.38-7.69-26.91-118.09,48.37-109.05,60.41,7.25,38.96,47.51,40.97,67.68,2.01,20.17-16.15,48.26,6.7,59.01,22.85,10.75,42.17-3.84,93.15-44.69,50.98-40.85,87.81-46.68,109.41-28.22,21.6,18.47,25.02,64.78-36.62,123.57-61.65,58.79-58.09,66.59-46.28,86.13,11.81,19.54,64.74,27.48,79.94,59.29,15.2,31.81,11.84,53.1,2.7,82.86-9.14,29.76-80.07,86.44-171.44-25.99-91.37-112.43-91.5-39.22-98.58-21.86-7.08,17.36,17.53,67.93-45.3,63.82-62.83-4.1-41.26-57.31-28.32-91.72,12.93-34.4,27.66-51.77-28.74-83.04-52.74-29.24-110.55-60.75-96.11-123.2,13.76-59.49,66.21-62.79,97.11-42.73,30.89,20.06,31.53,67.28,53.37,68.31,21.84,1.04,27.77-7.16,19.67-40.16Z"></path><path class="cls-25" d="M604.16,248.06c-9.83-7.28-26.87-122.11,51.52-112.2,62.85,7.95,39.63,50.04,40.82,70.48s-18.09,49.7,5.41,61.23c23.51,11.53,43.6-2.78,96.58-45.16,52.99-42.38,91.11-48.21,113.06-28.78,21.95,19.43,23.98,66.84-38.45,125.85-62.43,59.01-59.95,67.62-47.94,88.22,12,20.6,66.32,29.79,81.8,61.75,15.48,31.95,13.08,54.17,4.2,85.38-8.88,31.21-82.59,90.71-177.78-28.05-95.19-118.75-94.76-43.18-101.13-24.99-6.37,18.19,19.74,71.87-46.19,68.24-65.92-3.63-44.29-59.13-30.78-94.67,13.52-35.53,29.12-53.71-29.39-86.34-55.06-30.7-113.52-64.36-98.34-128.14,14.51-60.98,68.35-64.8,100.33-43.91,31.98,20.9,31.99,69.98,54.65,71.53,22.66,1.54,29.06-6.69,21.61-40.44Z"></path><path class="cls-23" d="M603.59,244.62c-9.28-6.88-26.82-126.13,54.67-115.34,65.28,8.65,40.29,52.56,40.68,73.28,.39,20.72-20.03,51.14,4.13,63.44,24.16,12.3,45.02-1.73,100.02-45.64s94.42-49.73,116.72-29.34c22.3,20.39,22.93,68.9-40.27,128.13-63.2,59.23-61.81,68.66-49.61,90.31,12.2,21.65,67.9,32.1,83.66,64.21,15.76,32.1,14.31,55.24,5.69,87.9-8.62,32.66-85.11,94.98-184.12-30.1-99.02-125.08-98.02-47.15-103.68-28.12-5.66,19.03,21.94,75.81-47.08,72.65s-47.33-60.95-33.23-97.62,30.59-55.65-30.04-89.64c-57.38-32.17-116.48-67.97-100.57-133.07,15.27-62.47,70.48-66.82,103.55-45.08,33.07,21.74,32.45,72.69,55.94,74.74,23.48,2.04,30.35-6.22,23.55-40.72Z"></path><path class="cls-7" d="M603.01,241.18c-8.74-6.47-26.78-130.16,57.81-118.48,67.72,9.34,40.96,55.08,40.53,76.08-.43,21-21.97,52.58,2.85,65.65,24.82,13.07,46.45-.67,103.45-46.11,57-45.45,97.72-51.26,120.37-29.9,22.65,21.35,21.88,70.96-42.1,130.4s-63.66,69.69-51.27,92.4c12.4,22.71,69.47,34.42,85.51,66.67s15.55,56.32,7.18,90.42c-8.37,34.1-87.63,99.24-190.46-32.16-102.84-131.4-101.27-51.11-106.23-31.25-4.95,19.86,24.14,79.75-47.97,77.07s-50.37-62.77-35.68-100.56c14.69-37.79,32.07-57.59-30.69-92.94-59.7-33.63-119.44-71.58-102.8-138s72.61-68.83,106.77-46.25c34.16,22.58,32.92,75.4,57.22,77.95s31.65-5.75,25.49-40.99Z"></path><path class="cls-39" d="M602.43,237.74c-8.19-6.07-26.74-134.18,60.96-121.62,70.15,10.04,41.62,57.6,40.38,78.88-1.24,21.28-23.91,54.02,1.57,67.87s47.88,.39,106.88-46.59c59-46.98,101.02-52.78,124.02-30.46,23,22.32,20.83,73.02-43.93,132.68-64.76,59.66-65.52,70.73-52.93,94.49,12.59,23.76,71.05,36.73,87.37,69.13,16.32,32.4,16.79,57.39,8.68,92.94-8.11,35.55-90.15,103.51-196.81-34.21-106.66-137.72-104.53-55.07-108.78-34.38-4.25,20.7,26.34,83.69-48.86,81.49s-53.41-64.59-38.13-103.51c15.27-38.92,33.54-59.52-31.34-96.23s-122.4-75.19-105.02-142.93c16.79-65.44,74.75-70.85,110-47.43,35.25,23.42,33.38,78.11,58.5,81.16,25.13,3.05,32.94-5.28,27.43-41.27Z"></path><path class="cls-20" d="M601.85,234.3c-7.65-5.66-26.7-138.2,64.11-124.77,72.59,10.74,42.29,60.12,40.24,81.68-2.05,21.56-25.85,55.46,.28,70.08,26.14,14.62,49.3,1.45,110.31-47.07,61.01-48.51,104.33-54.3,127.68-31.02,23.35,23.28,19.79,75.08-45.75,134.96-65.54,59.88-67.38,71.76-54.59,96.58,12.79,24.82,72.63,39.04,89.23,71.59s18.03,58.47,10.17,95.47-92.67,107.78-203.15-36.27c-110.48-144.04-107.79-59.04-111.33-37.5-3.54,21.53,28.54,87.63-49.75,85.9-78.29-1.72-56.44-66.41-40.59-106.46,15.86-40.05,35.01-61.46-31.99-99.53-64.34-36.56-125.36-78.79-107.25-147.86,17.55-66.92,76.88-72.87,113.22-48.6,36.34,24.26,33.84,80.82,59.79,84.38,25.95,3.55,34.23-4.81,29.38-41.55Z"></path><path class="cls-15" d="M601.27,230.86c-7.1-5.26-26.65-142.23,67.25-127.91,75.03,11.44,42.95,62.65,40.09,84.48-2.86,21.83-27.79,56.9-1,72.3,26.8,15.39,50.73,2.51,113.74-47.54,63.01-50.05,107.63-55.83,131.33-31.58,23.7,24.24,18.74,77.14-47.58,137.23s-69.24,72.79-56.25,98.67c12.99,25.87,74.21,41.35,91.08,74.05,16.88,32.7,19.26,59.54,11.67,97.99-7.59,38.44-95.19,112.05-209.49-38.32-114.3-150.37-111.05-63-113.88-40.63-2.83,22.37,30.75,91.57-50.64,90.32-81.38-1.25-59.48-68.23-43.04-109.41,16.44-41.17,36.48-63.4-32.64-102.83-66.66-38.03-128.32-82.4-109.48-152.8s79.01-74.88,116.44-49.77c37.43,25.11,34.3,83.53,61.07,87.59,26.77,4.06,35.52-4.34,31.32-41.82Z"></path><path class="cls-13" d="M600.7,227.42c-6.55-4.85-26.61-146.25,70.4-131.05,77.47,12.14,43.62,65.17,39.94,87.28-3.68,22.11-29.73,58.35-2.28,74.51,27.45,16.17,52.16,3.56,117.17-48.02s110.93-57.35,134.99-32.15c24.06,25.21,17.69,79.2-49.4,139.51-67.09,60.31-71.1,73.83-57.91,100.75,13.19,26.93,75.79,43.66,92.94,76.51,17.16,32.85,20.5,60.62,13.16,100.51s-97.71,116.32-215.83-40.38c-118.13-156.69-114.3-66.96-116.43-43.76-2.12,23.2,32.95,95.51-51.53,94.74-84.48-.77-62.52-70.05-45.49-112.36,17.02-42.3,37.96-65.33-33.29-106.13-68.98-39.5-131.28-86.01-111.71-157.73,19.07-69.89,81.14-76.9,119.67-50.95,38.52,25.95,34.76,86.24,62.35,90.8,27.59,4.56,36.81-3.87,33.26-42.1Z"></path><path class="cls-12" d="M600.12,223.98c-6.01-4.45-26.57-150.27,73.54-134.2,79.91,12.83,44.28,67.69,39.79,90.08-4.49,22.39-31.67,59.79-3.56,76.73,28.11,16.94,53.58,4.62,120.6-48.49,67.02-53.11,114.23-58.87,138.64-32.71,24.41,26.17,16.64,81.26-51.23,141.78-67.87,60.53-72.96,74.86-59.57,102.84,13.38,27.98,77.36,45.97,94.8,78.97s21.74,61.69,14.66,103.03-100.23,120.58-222.18-42.43c-121.95-163.01-117.56-70.92-118.98-46.89-1.42,24.04,35.15,99.45-52.42,99.15-87.57-.29-65.55-71.87-47.95-115.31s39.43-67.27-33.94-109.43c-71.3-40.97-134.24-89.62-113.94-162.66,19.83-71.37,83.28-78.91,122.89-52.12s35.22,88.95,63.64,94.02c28.42,5.06,38.1-3.4,35.2-42.38Z"></path><path class="cls-3" d="M599.54,220.54c-5.46-4.05-26.52-154.3,76.69-137.34,82.34,13.53,44.95,70.21,39.65,92.88-5.3,22.67-33.61,61.23-4.85,78.94,28.77,17.71,55.01,5.68,124.03-48.97,69.02-54.65,117.54-60.4,142.3-33.27,24.76,27.13,15.6,83.32-53.05,144.06-68.65,60.74-74.81,75.9-61.23,104.93,13.58,29.04,78.94,48.28,96.65,81.43,17.71,33.15,22.97,62.77,16.15,105.55-6.82,42.79-102.75,124.85-228.52-44.48-125.77-169.34-120.82-74.89-121.53-50.01-.71,24.87,37.35,103.39-53.31,103.57-90.66,.18-68.59-73.69-50.4-118.25,18.19-44.56,40.9-69.21-34.59-112.73-73.61-42.44-137.2-93.22-116.17-167.59,20.6-72.86,85.41-80.93,126.11-53.3,40.7,27.63,35.68,91.66,64.92,97.23,29.24,5.57,39.39-2.93,37.14-42.65Z"></path><path class="cls-6" d="M598.96,217.1c-4.92-3.64-26.48-158.32,79.84-140.48,84.78,14.23,45.61,72.73,39.5,95.68-6.12,22.95-35.55,62.67-6.13,81.16,29.43,18.49,56.44,6.74,127.46-49.44,71.03-56.18,120.84-61.92,145.95-33.83,25.11,28.09,14.55,85.38-54.88,146.34-69.43,60.96-76.67,76.93-62.89,107.02,13.78,30.09,80.52,50.59,98.51,83.89,17.99,33.3,24.21,63.84,17.65,108.08s-105.27,129.12-234.86-46.54c-129.59-175.66-124.08-78.85-124.08-53.14,0,25.71,39.56,107.33-54.2,107.99-93.75,.66-71.63-75.51-52.85-121.2,18.78-45.69,42.38-71.14-35.24-116.03-75.93-43.91-140.15-96.83-118.4-172.53s87.54-82.94,129.33-54.47c41.79,28.47,36.14,94.37,66.21,100.44,30.06,6.07,40.69-2.46,39.08-42.93Z"></path><path class="cls-33" d="M598.39,213.66c-4.37-3.24-26.43-162.35,82.98-143.62,87.22,14.92,46.28,75.25,39.35,98.48-6.93,23.22-37.49,64.11-7.41,83.37,30.08,19.26,57.86,7.8,130.89-49.92s124.14-63.45,149.61-34.39c25.46,29.06,13.5,87.44-56.7,148.61-70.21,61.18-78.53,77.97-64.56,109.11s82.1,52.91,100.37,86.35c18.27,33.44,25.45,64.92,19.14,110.6-6.3,45.68-107.79,133.39-241.2-48.59-133.42-181.98-127.33-82.81-126.63-56.27,.7,26.54,41.76,111.27-55.09,112.4s-74.67-77.33-55.31-124.15c19.36-46.82,43.85-73.08-35.89-119.33-78.24-45.38-143.11-100.43-120.63-177.46,22.13-75.82,89.68-84.96,132.56-55.64,42.88,29.32,36.6,97.08,67.49,103.66,30.88,6.58,41.98-1.99,41.02-43.21Z"></path><path class="cls-14" d="M597.81,210.22c-3.82-2.83-26.35-166.59,86.13-146.77,89.69,15.45,46.94,77.78,39.2,101.28-7.74,23.5-39.44,65.55-8.69,85.58,30.74,20.03,59.29,8.85,134.32-50.39,75.04-59.25,127.45-64.97,153.26-34.95,25.81,30.02,12.46,89.5-58.53,150.89-70.98,61.39-80.39,79-66.22,111.2,14.17,32.2,83.68,55.22,102.22,88.81,18.55,33.59,26.68,65.99,20.64,113.12-6.05,47.13-110.31,137.65-247.55-50.65-137.24-188.3-130.59-86.78-129.18-59.4,1.41,27.38,43.96,115.21-55.98,116.82s-77.7-79.15-57.76-127.1c19.94-47.94,45.33-75.01-36.54-122.62-80.56-46.85-146.06-104.04-122.86-182.39s91.81-86.97,135.78-56.82c43.97,30.16,37.07,99.79,68.77,106.87,31.71,7.08,43.27-1.52,42.96-43.48Z"></path><path class="cls-38" d="M597.23,206.78c-3.28-2.43-26.31-170.58,89.28-149.91,92.13,16.17,47.61,80.3,39.06,104.08-8.55,23.78-41.38,66.99-9.98,87.8,31.4,20.81,60.72,9.91,137.76-50.87,77.04-60.78,130.75-66.49,156.91-35.51,26.17,30.98,11.41,91.55-60.35,153.17-71.76,61.61-82.25,80.03-67.88,113.29,14.37,33.26,85.25,57.53,104.08,91.27,18.83,33.74,27.92,67.07,22.13,115.64-5.79,48.57-112.83,141.92-253.89-52.7-141.06-194.63-133.85-90.74-131.73-62.53,2.12,28.21,46.16,119.15-56.87,121.24s-80.74-80.97-60.21-130.05,46.81-76.95-37.19-125.92c-82.87-48.32-149.02-107.64-125.09-187.32s93.94-88.99,139-57.99c45.06,31,37.53,102.5,70.06,110.08,32.53,7.58,44.56-1.05,44.9-43.76Z"></path><path class="cls-28" d="M596.65,203.34c-2.73-2.02-26.27-174.58,92.42-153.05,94.56,16.89,48.28,82.82,38.91,106.88-9.37,24.06-43.32,68.43-11.26,90.01,32.06,21.58,62.14,10.97,141.19-51.35,79.04-62.31,134.05-68.02,160.57-36.07,26.52,31.94,10.36,93.61-62.18,155.44-72.54,61.83-84.11,81.07-69.54,115.38,14.57,34.31,86.83,59.84,105.94,93.73,19.11,33.89,29.16,68.14,23.63,118.16-5.53,50.02-115.35,146.19-260.23-54.76-144.88-200.95-137.11-94.7-134.28-65.65,2.83,29.05,48.37,123.09-57.76,125.65s-83.78-82.79-62.66-133c21.11-50.2,48.28-78.88-37.84-129.22s-151.82-111.2-127.32-192.25c24.57-80.21,96.07-91.01,142.23-59.16,46.15,31.84,37.99,105.21,71.34,113.29,33.35,8.09,45.85-.58,46.85-44.03Z"></path><path class="cls-34" d="M596.07,199.9c-2.18-1.62-26.23-178.57,95.57-156.2,97,17.61,48.94,85.34,38.76,109.68-10.18,24.34-45.26,69.87-12.54,92.23,32.71,22.35,63.57,12.03,144.62-51.82,81.05-63.85,137.35-69.54,164.22-36.63,26.87,32.91,9.31,95.67-64,157.72-73.32,62.04-85.96,82.1-71.2,117.47,14.76,35.37,88.41,62.15,107.79,96.19,19.38,34.04,30.4,69.22,25.12,120.69s-117.87,150.46-266.57-56.81c-148.71-207.27-140.36-98.66-136.83-68.78,3.53,29.88,50.57,127.03-58.65,130.07-109.21,3.04-86.81-84.61-65.12-135.94,21.7-51.33,49.76-80.82-38.49-132.52-87.5-51.27-154.81-114.81-129.54-197.19,25.31-81.7,98.21-93.02,145.45-60.34,47.24,32.68,38.45,107.92,72.62,116.51,34.17,8.59,47.14-.11,48.79-44.31Z"></path><path class="cls-11" d="M595.5,196.46c-1.64-1.21-26.19-182.56,98.71-159.34,99.43,18.33,49.61,87.86,38.61,112.48-10.99,24.61-47.2,71.31-13.82,94.44,33.37,23.13,64.99,13.08,148.05-52.3,83.05-65.38,140.66-71.06,167.88-37.2,27.22,33.87,8.27,97.73-65.83,159.99-74.1,62.26-87.82,83.14-72.86,119.56,14.96,36.42,89.99,64.46,109.65,98.65,19.66,34.19,31.63,70.29,26.62,123.21s-120.39,154.73-272.91-58.87c-152.53-213.6-143.62-102.63-139.38-71.91,4.24,30.72,52.77,130.97-59.54,134.49s-89.85-86.43-67.57-138.89c22.28-52.46,51.24-82.75-39.14-135.82-89.82-52.74-157.79-118.43-131.77-202.12,26.05-83.19,100.34-95.04,148.67-61.51,48.33,33.53,38.91,110.63,73.91,119.72,35,9.09,48.43,.36,50.73-44.59Z"></path><path class="cls-37" d="M594.92,193.02c-1.09-.81-26.15-186.56,101.86-162.48,101.87,19.06,50.27,90.39,38.47,115.28-11.81,24.89-49.14,72.75-15.11,96.66s66.42,14.14,151.48-52.77c85.06-66.91,143.96-72.59,171.53-37.76,27.57,34.83,7.22,99.79-67.66,162.27-74.88,62.48-89.68,84.17-74.52,121.65,15.16,37.48,91.57,66.77,111.51,101.11,19.94,34.34,32.87,71.37,28.11,125.73s-122.91,158.99-279.26-60.92c-156.35-219.92-146.88-106.59-141.93-75.04,4.95,31.55,54.97,134.91-60.43,138.9s-92.89-88.25-70.02-141.84,52.81-84.85-39.79-139.12c-92.03-54.37-160.77-122.04-134-207.05,26.79-84.68,102.47-97.05,151.9-62.69,49.42,34.37,39.37,113.34,75.19,122.93,35.82,9.6,49.73,.83,52.67-44.86Z"></path><path class="cls-22" d="M594.34,189.57c-.55-.4-26.1-190.55,105.01-165.62,104.3,19.78,50.94,92.91,38.32,118.08-12.62,25.17-51.08,74.2-16.39,98.87s67.85,15.2,154.91-53.25c87.06-68.45,147.26-74.11,175.19-38.32,27.92,35.8,6.17,101.85-69.48,164.55-75.65,62.7-91.54,85.21-76.18,123.74,15.35,38.53,93.14,69.08,113.36,103.57,20.22,34.49,34.11,72.44,29.61,128.25-4.5,55.81-125.43,163.26-285.6-62.98-160.17-226.24-150.14-110.55-144.48-78.16,5.65,32.39,57.18,138.85-61.32,143.32s-95.93-90.07-72.48-144.79c23.45-54.72,54.24-86.7-40.44-142.42-94.39-55.76-163.75-125.65-136.23-211.98,27.54-86.17,104.61-99.07,155.12-63.86,50.51,35.21,39.83,116.05,76.47,126.15,36.64,10.1,51.02,1.3,54.61-45.14Z"></path><path class="cls-10" d="M593.76,186.13s-26.06-194.54,108.15-168.77c106.74,20.5,51.6,95.43,38.17,120.88-13.43,25.45-53.02,75.64-17.67,101.08,35.34,25.45,69.27,16.26,158.34-53.72,89.07-69.98,150.57-75.64,178.84-38.88,28.28,36.76,5.12,103.91-71.31,166.82-76.43,62.91-93.4,86.24-77.85,125.82,15.55,39.59,94.72,71.39,115.22,106.03,20.5,34.64,35.34,73.52,31.1,130.77s-127.95,167.53-291.94-65.03c-164-232.56-153.39-114.51-147.03-81.29,6.36,33.22,59.38,142.79-62.21,147.74-121.58,4.95-98.96-91.89-74.93-147.74s55.67-88.56-41.09-145.72c-96.75-57.16-166.74-129.26-138.46-216.91,28.28-87.65,106.74-101.08,158.34-65.03,51.6,36.05,40.29,118.76,77.76,129.36,37.46,10.6,52.31,1.77,56.55-45.42Z"></path></svg>