<svg xmlns="http://www.w3.org/2000/svg" xmlns:xlink="http://www.w3.org/1999/xlink" id="Layer_1" data-name="Layer 1" viewBox="0 0 1366 768"><defs><style>      .cls-1 {        stroke: url(#New_Gradient_Swatch-6);      }      .cls-1, .cls-2, .cls-3, .cls-4, .cls-5, .cls-6, .cls-7, .cls-8, .cls-9, .cls-10, .cls-11, .cls-12, .cls-13, .cls-14, .cls-15, .cls-16, .cls-17, .cls-18, .cls-19, .cls-20, .cls-21, .cls-22, .cls-23, .cls-24, .cls-25, .cls-26, .cls-27, .cls-28, .cls-29, .cls-30, .cls-31, .cls-32, .cls-33, .cls-34, .cls-35, .cls-36, .cls-37, .cls-38, .cls-39, .cls-40, .cls-41, .cls-42 {        fill: none;        stroke-miterlimit: 10;        stroke-width: .28px;      }      .cls-2 {        stroke: url(#New_Gradient_Swatch-22);      }      .cls-3 {        stroke: url(#New_Gradient_Swatch-32);      }      .cls-4 {        stroke: url(#New_Gradient_Swatch);      }      .cls-5 {        stroke: url(#New_Gradient_Swatch-18);      }      .cls-6 {        stroke: url(#New_Gradient_Swatch-33);      }      .cls-7 {        stroke: url(#New_Gradient_Swatch-26);      }      .cls-8 {        stroke: url(#New_Gradient_Swatch-21);      }      .cls-9 {        stroke: url(#New_Gradient_Swatch-11);      }      .cls-10 {        stroke: url(#New_Gradient_Swatch-42);      }      .cls-11 {        stroke: url(#New_Gradient_Swatch-39);      }      .cls-12 {        stroke: url(#New_Gradient_Swatch-31);      }      .cls-13 {        stroke: url(#New_Gradient_Swatch-30);      }      .cls-14 {        stroke: url(#New_Gradient_Swatch-35);      }      .cls-15 {        stroke: url(#New_Gradient_Swatch-29);      }      .cls-16 {        stroke: url(#New_Gradient_Swatch-17);      }      .cls-17 {        stroke: url(#New_Gradient_Swatch-23);      }      .cls-18 {        stroke: url(#New_Gradient_Swatch-16);      }      .cls-19 {        stroke: url(#New_Gradient_Swatch-14);      }      .cls-20 {        stroke: url(#New_Gradient_Swatch-28);      }      .cls-21 {        stroke: url(#New_Gradient_Swatch-8);      }      .cls-22 {        stroke: url(#New_Gradient_Swatch-41);      }      .cls-23 {        stroke: url(#New_Gradient_Swatch-25);      }      .cls-24 {        stroke: url(#New_Gradient_Swatch-2);      }      .cls-25 {        stroke: url(#New_Gradient_Swatch-24);      }      .cls-26 {        stroke: url(#New_Gradient_Swatch-12);      }      .cls-27 {        stroke: url(#New_Gradient_Swatch-15);      }      .cls-28 {        stroke: url(#New_Gradient_Swatch-37);      }      .cls-29 {        stroke: url(#New_Gradient_Swatch-19);      }      .cls-30 {        stroke: url(#New_Gradient_Swatch-10);      }      .cls-31 {        stroke: url(#New_Gradient_Swatch-7);      }      .cls-32 {        stroke: url(#New_Gradient_Swatch-5);      }      .cls-33 {        stroke: url(#New_Gradient_Swatch-34);      }      .cls-34 {        stroke: url(#New_Gradient_Swatch-38);      }      .cls-35 {        stroke: url(#New_Gradient_Swatch-9);      }      .cls-36 {        stroke: url(#New_Gradient_Swatch-13);      }      .cls-37 {        stroke: url(#New_Gradient_Swatch-40);      }      .cls-38 {        stroke: url(#New_Gradient_Swatch-36);      }      .cls-39 {        stroke: url(#New_Gradient_Swatch-27);      }      .cls-40 {        stroke: url(#New_Gradient_Swatch-3);      }      .cls-41 {        stroke: url(#New_Gradient_Swatch-4);      }      .cls-42 {        stroke: url(#New_Gradient_Swatch-20);      }    </style><linearGradient id="New_Gradient_Swatch" data-name="New Gradient Swatch" x1="400.14" y1="388.24" x2="933.4" y2="388.24" gradientTransform="translate(1048.17 1058.95) rotate(-149.84)" gradientUnits="userSpaceOnUse"><stop offset="0" stop-color="#c8d5dc"></stop><stop offset=".6" stop-color="#20b4c4"></stop><stop offset="1" stop-color="#126c76"></stop></linearGradient><linearGradient id="New_Gradient_Swatch-2" data-name="New Gradient Swatch" x1="389.73" y1="388.82" x2="946.85" y2="388.82" gradientTransform="translate(1022.6 1033.13) rotate(-149.1) scale(.95)" xlink:href="#New_Gradient_Swatch"></linearGradient><linearGradient id="New_Gradient_Swatch-3" data-name="New Gradient Swatch" x1="377.97" y1="390.38" x2="961.81" y2="390.38" gradientTransform="translate(997.04 1007.3) rotate(-148.29) scale(.91)" xlink:href="#New_Gradient_Swatch"></linearGradient><linearGradient id="New_Gradient_Swatch-4" data-name="New Gradient Swatch" x1="364.6" y1="392.32" x2="978.83" y2="392.32" gradientTransform="translate(971.47 981.47) rotate(-147.4) scale(.86)" xlink:href="#New_Gradient_Swatch"></linearGradient><linearGradient id="New_Gradient_Swatch-5" data-name="New Gradient Swatch" x1="349.33" y1="394.73" x2="998.05" y2="394.73" gradientTransform="translate(945.91 955.64) rotate(-146.41) scale(.82)" xlink:href="#New_Gradient_Swatch"></linearGradient><linearGradient id="New_Gradient_Swatch-6" data-name="New Gradient Swatch" x1="331.8" y1="397.71" x2="1019.78" y2="397.71" gradientTransform="translate(920.34 929.81) rotate(-145.3) scale(.78)" xlink:href="#New_Gradient_Swatch"></linearGradient><linearGradient id="New_Gradient_Swatch-7" data-name="New Gradient Swatch" x1="311.63" y1="401.43" x2="1044.39" y2="401.43" gradientTransform="translate(894.78 903.99) rotate(-144.06) scale(.73)" xlink:href="#New_Gradient_Swatch"></linearGradient><linearGradient id="New_Gradient_Swatch-8" data-name="New Gradient Swatch" x1="288.39" y1="406.98" x2="1072.26" y2="406.98" gradientTransform="translate(869.21 878.16) rotate(-142.66) scale(.69)" xlink:href="#New_Gradient_Swatch"></linearGradient><linearGradient id="New_Gradient_Swatch-9" data-name="New Gradient Swatch" x1="261.62" y1="414.07" x2="1103.87" y2="414.07" gradientTransform="translate(843.65 852.33) rotate(-141.07) scale(.64)" xlink:href="#New_Gradient_Swatch"></linearGradient><linearGradient id="New_Gradient_Swatch-10" data-name="New Gradient Swatch" x1="230.83" y1="422.77" x2="1139.7" y2="422.77" gradientTransform="translate(818.08 826.5) rotate(-139.26) scale(.6)" xlink:href="#New_Gradient_Swatch"></linearGradient><linearGradient id="New_Gradient_Swatch-11" data-name="New Gradient Swatch" x1="195.53" y1="433.28" x2="1180.28" y2="433.28" gradientTransform="translate(792.52 800.67) rotate(-137.17) scale(.56)" xlink:href="#New_Gradient_Swatch"></linearGradient><linearGradient id="New_Gradient_Swatch-12" data-name="New Gradient Swatch" x1="155.26" y1="445.91" x2="1226.05" y2="445.91" gradientTransform="translate(766.95 774.84) rotate(-134.74) scale(.52)" xlink:href="#New_Gradient_Swatch"></linearGradient><linearGradient id="New_Gradient_Swatch-13" data-name="New Gradient Swatch" x1="109.46" y1="460.93" x2="1277.29" y2="460.93" gradientTransform="translate(741.39 749.02) rotate(-131.9) scale(.48)" xlink:href="#New_Gradient_Swatch"></linearGradient><linearGradient id="New_Gradient_Swatch-14" data-name="New Gradient Swatch" x1="55.49" y1="478.55" x2="1333.74" y2="478.55" gradientTransform="translate(715.82 723.19) rotate(-128.54) scale(.44)" xlink:href="#New_Gradient_Swatch"></linearGradient><linearGradient id="New_Gradient_Swatch-15" data-name="New Gradient Swatch" x1="-7.84" y1="498.67" x2="1394.11" y2="498.67" gradientTransform="translate(690.26 697.36) rotate(-124.56) scale(.4)" xlink:href="#New_Gradient_Swatch"></linearGradient><linearGradient id="New_Gradient_Swatch-16" data-name="New Gradient Swatch" x1="-80.22" y1="520.41" x2="1455.13" y2="520.41" gradientTransform="translate(664.69 671.53) rotate(-119.79) scale(.37)" xlink:href="#New_Gradient_Swatch"></linearGradient><linearGradient id="New_Gradient_Swatch-17" data-name="New Gradient Swatch" x1="-159.28" y1="541.34" x2="1510.14" y2="541.34" gradientTransform="translate(639.13 645.7) rotate(-114.08) scale(.34)" xlink:href="#New_Gradient_Swatch"></linearGradient><linearGradient id="New_Gradient_Swatch-18" data-name="New Gradient Swatch" x1="-239.53" y1="556.06" x2="1547.54" y2="556.06" gradientTransform="translate(613.56 619.88) rotate(-107.27) scale(.31)" xlink:href="#New_Gradient_Swatch"></linearGradient><linearGradient id="New_Gradient_Swatch-19" data-name="New Gradient Swatch" x1="-314.4" y1="554.61" x2="1550.59" y2="554.61" gradientTransform="translate(588 594.05) rotate(-99.27) scale(.29)" xlink:href="#New_Gradient_Swatch"></linearGradient><linearGradient id="New_Gradient_Swatch-20" data-name="New Gradient Swatch" x1="-365.85" y1="500.82" x2="1563.65" y2="500.82" gradientTransform="translate(562.43 568.22) rotate(-90.11) scale(.27)" xlink:href="#New_Gradient_Swatch"></linearGradient><linearGradient id="New_Gradient_Swatch-21" data-name="New Gradient Swatch" x1="-364.2" y1="456.76" x2="1662.91" y2="456.76" gradientTransform="translate(536.87 542.39) rotate(-80.09) scale(.26)" xlink:href="#New_Gradient_Swatch"></linearGradient><linearGradient id="New_Gradient_Swatch-22" data-name="New Gradient Swatch" x1="-306.37" y1="443.45" x2="1805.77" y2="443.45" gradientTransform="translate(511.3 516.56) rotate(-69.75) scale(.26)" xlink:href="#New_Gradient_Swatch"></linearGradient><linearGradient id="New_Gradient_Swatch-23" data-name="New Gradient Swatch" x1="-211.98" y1="436.11" x2="1884.56" y2="436.11" gradientTransform="translate(485.74 490.73) rotate(-59.73) scale(.27)" xlink:href="#New_Gradient_Swatch"></linearGradient><linearGradient id="New_Gradient_Swatch-24" data-name="New Gradient Swatch" x1="-110.53" y1="439.9" x2="1889.13" y2="439.9" gradientTransform="translate(460.17 464.91) rotate(-50.57) scale(.29)" xlink:href="#New_Gradient_Swatch"></linearGradient><linearGradient id="New_Gradient_Swatch-25" data-name="New Gradient Swatch" x1="-13.05" y1="450.62" x2="1838.92" y2="450.62" gradientTransform="translate(434.61 439.08) rotate(-42.56) scale(.31)" xlink:href="#New_Gradient_Swatch"></linearGradient><linearGradient id="New_Gradient_Swatch-26" data-name="New Gradient Swatch" x1="73.15" y1="462.03" x2="1759" y2="462.03" gradientTransform="translate(409.04 413.25) rotate(-35.75) scale(.34)" xlink:href="#New_Gradient_Swatch"></linearGradient><linearGradient id="New_Gradient_Swatch-27" data-name="New Gradient Swatch" x1="145.02" y1="470.21" x2="1668.85" y2="470.21" gradientTransform="translate(383.48 387.42) rotate(-30.05) scale(.37)" xlink:href="#New_Gradient_Swatch"></linearGradient><linearGradient id="New_Gradient_Swatch-28" data-name="New Gradient Swatch" x1="202.62" y1="463.77" x2="1580.05" y2="463.77" gradientTransform="translate(357.91 361.59) rotate(-25.28) scale(.4)" xlink:href="#New_Gradient_Swatch"></linearGradient><linearGradient id="New_Gradient_Swatch-29" data-name="New Gradient Swatch" x1="246.97" y1="455.42" x2="1498.16" y2="455.42" gradientTransform="translate(332.35 335.77) rotate(-21.29) scale(.44)" xlink:href="#New_Gradient_Swatch"></linearGradient><linearGradient id="New_Gradient_Swatch-30" data-name="New Gradient Swatch" x1="248.49" y1="446.72" x2="1425.11" y2="446.72" gradientTransform="translate(306.78 309.94) rotate(-17.94) scale(.48)" xlink:href="#New_Gradient_Swatch"></linearGradient><linearGradient id="New_Gradient_Swatch-31" data-name="New Gradient Swatch" x1="252.92" y1="438.29" x2="1361.01" y2="438.29" gradientTransform="translate(281.22 284.11) rotate(-15.1) scale(.52)" xlink:href="#New_Gradient_Swatch"></linearGradient><linearGradient id="New_Gradient_Swatch-32" data-name="New Gradient Swatch" x1="259.93" y1="430.41" x2="1305.15" y2="430.41" gradientTransform="translate(255.65 258.28) rotate(-12.67) scale(.56)" xlink:href="#New_Gradient_Swatch"></linearGradient><linearGradient id="New_Gradient_Swatch-33" data-name="New Gradient Swatch" x1="268.61" y1="423.18" x2="1256.55" y2="423.18" gradientTransform="translate(230.09 232.45) rotate(-10.58) scale(.6)" xlink:href="#New_Gradient_Swatch"></linearGradient><linearGradient id="New_Gradient_Swatch-34" data-name="New Gradient Swatch" x1="278.23" y1="416.62" x2="1214.21" y2="416.62" gradientTransform="translate(204.52 206.63) rotate(-8.76) scale(.64)" xlink:href="#New_Gradient_Swatch"></linearGradient><linearGradient id="New_Gradient_Swatch-35" data-name="New Gradient Swatch" x1="288.27" y1="410.73" x2="1177.21" y2="410.73" gradientTransform="translate(178.96 180.8) rotate(-7.17) scale(.69)" xlink:href="#New_Gradient_Swatch"></linearGradient><linearGradient id="New_Gradient_Swatch-36" data-name="New Gradient Swatch" x1="298.37" y1="405.46" x2="1144.72" y2="405.46" gradientTransform="translate(153.39 154.97) rotate(-5.77) scale(.73)" xlink:href="#New_Gradient_Swatch"></linearGradient><linearGradient id="New_Gradient_Swatch-37" data-name="New Gradient Swatch" x1="308.27" y1="400.77" x2="1116.09" y2="400.77" gradientTransform="translate(127.83 129.14) rotate(-4.53) scale(.78)" xlink:href="#New_Gradient_Swatch"></linearGradient><linearGradient id="New_Gradient_Swatch-38" data-name="New Gradient Swatch" x1="317.94" y1="396.6" x2="1090.71" y2="396.6" gradientTransform="translate(102.26 103.31) rotate(-3.43) scale(.82)" xlink:href="#New_Gradient_Swatch"></linearGradient><linearGradient id="New_Gradient_Swatch-39" data-name="New Gradient Swatch" x1="327.23" y1="392.88" x2="1068.13" y2="392.88" gradientTransform="translate(76.7 77.48) rotate(-2.44) scale(.86)" xlink:href="#New_Gradient_Swatch"></linearGradient><linearGradient id="New_Gradient_Swatch-40" data-name="New Gradient Swatch" x1="336.11" y1="389.57" x2="1047.93" y2="389.57" gradientTransform="translate(51.13 51.66) rotate(-1.54) scale(.91)" xlink:href="#New_Gradient_Swatch"></linearGradient><linearGradient id="New_Gradient_Swatch-41" data-name="New Gradient Swatch" x1="344.55" y1="386.62" x2="1029.8" y2="386.62" gradientTransform="translate(25.57 25.83) rotate(-.74) scale(.95)" xlink:href="#New_Gradient_Swatch"></linearGradient><linearGradient id="New_Gradient_Swatch-42" data-name="New Gradient Swatch" x1="352.56" y1="384" x2="1013.44" y2="384" gradientTransform="matrix(1, 0, 0, 1, 0, 0)" xlink:href="#New_Gradient_Swatch"></linearGradient></defs><path class="cls-4" d="M667.06,599.49c-1.95,1.06-3.84,2.21-5.72,3.39-8.02,5.02-45.41,22.02-130.74-27.57-97.52-56.68-122.75-139.23-79.34-296.38,43.41-157.14,108.78-253.6,149.98-187.06,41.2,66.54,31.08,161.83,128.93,172.11,97.86,10.28,236.71-34.88,243.62,87.01,3.63,64.02-41.28,108.95-102.98,146.47s-140.2,67.64-203.75,102.02Z"></path><path class="cls-24" d="M595.7,95.65c32.93,49.09,35.41,114.21,84.04,145.55,13.34,8.59,29.97,14.67,51.62,16.88,13.03,1.32,26.72,1.79,40.72,1.89,24.62,.2,50.66-.88,74.24-.64,24.84,.25,45.93,2.65,64.86,8.46,32.61,10.01,55.99,32.43,59,83.82,3.79,65.23-37.75,112.1-97.72,149.8-59.98,37.68-136.78,68.12-201.78,101.5-1.96,1-3.83,2.14-5.71,3.28-1.02,.61-2.49,1.43-4.46,2.23-14.23,5.76-52.17,12.5-125.66-30.29-97.31-56.76-123.5-139.61-82.34-293.94,40.75-154.69,101.22-251.31,143.21-188.53Z"></path><path class="cls-40" d="M590.15,99.43c33.6,46.09,37.72,106.62,89.23,136.54,13.97,8.11,31.1,14.03,53.15,16.21,13.4,1.31,27.45,1.85,41.78,2.08,25.38,.48,52.64-.23,76.04,.47,24.89,.74,43.4,4.47,60.99,10.78,30.13,10.81,52,33.74,55.19,86.7,3.96,66.45-34.21,115.25-92.46,153.14-58.25,37.83-133.32,68.61-199.8,100.97-1.96,.95-3.82,2.07-5.71,3.16-1.03,.59-2.48,1.41-4.46,2.15-14.74,5.59-52.63,11.55-125.06-30.69-97.1-56.84-123.78-139.86-85.34-291.5,38.56-152.11,93.65-249.03,136.43-190Z"></path><path class="cls-41" d="M584.61,103.2c34.18,43.16,40,99.03,94.43,127.52,14.59,7.64,32.23,13.38,54.68,15.54,13.77,1.3,28.18,1.91,42.85,2.28,26.14,.75,54.63,.42,77.84,1.58,24.94,1.24,40.88,6.28,57.13,13.1,27.67,11.62,48.01,35.06,51.39,89.58,4.12,67.67-30.68,118.41-87.2,156.47-56.53,37.99-129.83,69.11-197.83,100.45-1.96,.9-3.81,2-5.7,3.05-1.03,.57-2.48,1.38-4.45,2.07-15.26,5.41-53.1,10.6-124.46-31.09-96.89-56.92-124.3-140.19-88.34-289.07,36.14-149.6,85.96-246.65,129.66-191.48Z"></path><path class="cls-32" d="M579.07,106.98c34.83,40.19,42.25,91.46,99.62,118.51,15.21,7.17,33.36,12.74,56.21,14.87,14.15,1.28,28.91,1.94,43.91,2.48,26.91,.97,56.62,1.08,79.64,2.68,25,1.75,38.38,8.09,53.26,15.42,25.23,12.42,44.02,36.38,47.58,92.46,4.28,68.89-27.15,121.56-81.93,159.8-54.81,38.14-126.3,69.61-195.85,99.92-1.96,.86-3.81,1.94-5.69,2.94-1.04,.55-2.48,1.34-4.44,1.99-15.78,5.24-53.56,9.64-123.86-31.49-96.68-57-124.82-140.51-91.33-286.63,33.71-147.1,78.36-244.33,122.89-192.95Z"></path><path class="cls-1" d="M573.53,110.76c35.47,37.22,44.48,83.91,104.81,109.5,15.81,6.71,34.48,12.1,57.74,14.2,14.52,1.27,29.64,1.99,44.98,2.67,27.67,1.24,58.62,1.74,81.44,3.79,25.05,2.25,35.89,9.9,49.4,17.74,22.82,13.24,40.03,37.7,43.78,95.35,4.45,70.1-23.62,124.72-76.67,163.14-53.08,38.3-122.74,70.13-193.87,99.39-1.96,.81-3.8,1.87-5.69,2.83-1.05,.53-2.48,1.31-4.43,1.91-16.32,5.05-54.11,8.83-123.26-31.9-96.59-56.89-125.34-140.85-94.33-284.19,31.29-144.61,70.77-242,116.11-194.42Z"></path><path class="cls-31" d="M567.98,114.53c36.12,34.25,46.68,76.37,110,100.48,16.41,6.25,35.61,11.45,59.27,13.53,14.89,1.26,30.37,2.04,46.04,2.87,28.43,1.5,60.61,2.41,83.24,4.9,25.12,2.77,33.41,11.72,45.53,20.06,20.44,14.06,36.05,39.02,39.97,98.23,4.61,71.32-20.08,127.87-71.41,166.47-51.36,38.45-119.16,70.66-191.9,98.87-1.96,.76-3.79,1.8-5.68,2.71-1.06,.51-2.49,1.27-4.43,1.83-16.87,4.86-54.59,7.91-122.66-32.3-96.4-56.94-125.87-141.19-97.33-281.76,28.86-142.12,63.17-239.67,109.34-195.89Z"></path><path class="cls-21" d="M562.44,118.31c36.78,31.29,48.87,68.86,115.2,91.47,17.01,5.8,36.74,10.81,60.8,12.86,15.27,1.25,31.09,2.1,47.11,3.07,29.19,1.77,62.61,3.08,85.04,6,25.18,3.28,30.95,13.55,41.66,22.38,18.09,14.9,32.06,40.34,36.17,101.11,4.78,72.54-16.55,131.02-66.15,169.8-49.63,38.61-115.54,71.21-189.92,98.34-1.96,.72-3.78,1.73-5.67,2.6-1.06,.49-2.49,1.24-4.42,1.75-17.42,4.67-55.07,6.98-122.05-32.7-96.21-56.98-126.4-141.54-100.33-279.32,26.43-139.64,55.58-237.33,102.56-197.37Z"></path><path class="cls-35" d="M556.9,122.09c37.44,28.33,51.04,61.37,120.39,82.45,17.6,5.35,37.86,10.16,62.33,12.19,15.64,1.24,31.82,2.15,48.18,3.27,29.96,2.04,64.61,3.76,86.84,7.11,25.25,3.81,28.51,15.41,37.8,24.7,15.77,15.78,28.07,41.66,32.36,103.99,4.94,73.76-13.02,134.18-60.88,173.14-47.91,38.76-111.89,71.78-187.95,97.82-1.96,.67-3.78,1.66-5.67,2.49-1.07,.47-2.5,1.2-4.41,1.67-17.99,4.47-55.55,6.05-121.45-33.1-96.02-57.03-126.93-141.9-103.32-276.88,23.99-137.17,48-235,95.79-198.84Z"></path><path class="cls-30" d="M551.36,125.86c38.11,25.37,53.2,53.9,125.58,73.44,18.2,4.91,38.99,9.52,63.86,11.52,16.01,1.23,32.55,2.21,49.24,3.46,30.72,2.31,66.61,4.45,88.64,8.22,25.32,4.33,26.08,17.28,33.93,27.02,13.47,16.71,24.08,42.97,28.55,106.87,5.1,74.98-9.48,137.33-55.62,176.47-46.18,38.92-108.23,72.36-185.97,97.29-1.95,.63-3.77,1.59-5.66,2.38-1.08,.45-2.5,1.16-4.4,1.59-18.56,4.27-56.02,5.11-120.85-33.5-95.83-57.08-127.47-142.26-106.32-274.45,21.56-134.71,40.43-232.66,89.02-200.31Z"></path><path class="cls-9" d="M545.82,129.64c38.78,22.41,55.36,46.45,130.78,64.42,18.78,4.48,40.12,8.88,65.39,10.85,16.38,1.22,33.28,2.27,50.31,3.66,31.48,2.58,68.61,5.14,90.43,9.33,25.39,4.87,23.65,19.19,30.07,29.34,11.19,17.7,20.09,44.29,24.75,109.76,5.27,76.19-5.95,140.48-50.36,179.8-44.46,39.07-104.54,72.98-184,96.76-1.95,.58-3.76,1.52-5.65,2.26-1.09,.43-2.51,1.11-4.39,1.51-19.13,4.05-56.5,4.18-120.25-33.9-95.64-57.13-128.02-142.64-109.32-272.01,19.12-132.26,32.87-230.32,82.24-201.79Z"></path><path class="cls-26" d="M540.27,133.41c39.47,19.45,57.51,39.01,135.97,55.41,19.37,4.05,41.24,8.23,66.92,10.18,16.76,1.21,34.01,2.32,51.37,3.86,32.24,2.85,70.62,5.84,92.23,10.43,25.46,5.41,21.21,21.14,26.2,31.66,8.89,18.74,16.1,45.61,20.94,112.64,5.43,77.41-2.33,143.72-45.09,183.13s-100.82,73.62-182.02,96.24c-1.95,.54-3.76,1.45-5.65,2.15-1.1,.41-2.52,1.07-4.39,1.43-19.71,3.83-56.97,3.24-119.65-34.31-95.45-57.19-128.57-143.02-112.32-269.58,16.67-129.82,25.31-227.98,75.47-203.26Z"></path><path class="cls-36" d="M534.73,137.19c40.15,16.49,59.65,31.6,141.16,46.4,19.96,3.62,42.37,7.59,68.45,9.51,17.13,1.2,34.73,2.38,52.44,4.06,33,3.12,72.62,6.55,94.03,11.54,25.53,5.96,18.74,23.12,22.33,33.98,6.56,19.85,12.11,46.93,17.14,115.52,5.6,78.63,1.21,146.88-39.83,186.47-40.92,39.47-97.09,74.28-180.05,95.71-1.94,.5-3.75,1.38-5.64,2.04-1.11,.39-2.53,1.02-4.38,1.35-20.3,3.6-57.45,2.31-119.05-34.71-95.26-57.24-129.13-143.41-115.31-267.14,14.22-127.38,17.76-225.64,68.69-204.73Z"></path><path class="cls-19" d="M529.19,140.97c40.85,13.52,61.79,24.2,146.35,37.38,20.54,3.2,43.5,6.95,69.99,8.84,17.5,1.18,35.46,2.44,53.51,4.25,33.77,3.4,74.62,7.26,95.83,12.65,25.6,6.51,16.25,25.13,18.47,36.3,4.17,21,8.12,48.25,13.33,118.4,5.76,79.85,4.75,150.04-34.57,189.8-39.19,39.63-93.34,74.98-178.07,95.19-1.94,.46-3.75,1.31-5.63,1.93-1.12,.36-2.53,.98-4.37,1.27-20.89,3.36-57.92,1.37-118.45-35.11-95.07-57.3-129.69-143.81-118.31-264.7,11.76-124.96,10.23-223.31,61.92-206.2Z"></path><path class="cls-27" d="M523.65,144.74c41.55,10.55,63.93,16.82,151.55,28.37,21.13,2.78,44.62,6.3,71.52,8.17,17.87,1.17,36.19,2.5,54.57,4.45,34.53,3.67,76.63,7.97,97.63,13.76,25.68,7.07,13.71,27.14,14.6,38.62,1.72,22.16,4.13,49.57,9.53,121.29,5.93,81.06,8.29,153.2-29.31,193.13-37.46,39.79-89.58,75.7-176.1,94.66-1.93,.42-3.74,1.24-5.63,1.81-1.12,.34-2.54,.93-4.36,1.19-21.49,3.11-58.39,.43-117.84-35.51-94.87-57.35-130.27-144.22-121.31-262.27,9.3-122.55,2.7-220.99,55.15-207.68Z"></path><path class="cls-18" d="M518.1,148.52c42.26,7.57,66.07,9.46,156.74,19.35,21.71,2.37,45.75,5.66,73.05,7.5,18.25,1.16,36.92,2.55,55.64,4.65,35.29,3.95,78.63,8.7,99.43,14.86,25.75,7.63,11.14,29.15,10.74,40.95-.8,23.32,.14,50.89,5.72,124.17,6.09,82.28,11.83,156.35-24.04,196.47s-85.8,76.46-174.12,94.14c-1.93,.39-3.74,1.17-5.62,1.7-1.13,.32-2.55,.88-4.36,1.11-22.08,2.85-58.86-.51-117.24-35.91-94.68-57.41-130.85-144.63-124.31-259.83s-4.83-218.68,48.37-209.15Z"></path><path class="cls-16" d="M512.56,152.3c42.97,4.58,68.22,2.11,161.93,10.34,22.3,1.96,46.88,5.01,74.58,6.83,18.62,1.15,37.65,2.61,56.7,4.84,36.05,4.22,80.63,9.43,101.23,15.97,25.82,8.2,8.55,31.14,6.87,43.27-3.38,24.45-3.85,52.2,1.92,127.05,6.25,83.5,15.37,159.51-18.78,199.8s-82.01,77.26-172.14,93.61c-1.92,.35-3.73,1.1-5.61,1.59-1.14,.3-2.56,.83-4.35,1.03-22.68,2.58-59.33-1.46-116.64-36.32-94.48-57.47-131.45-145.06-127.3-257.39,4.34-117.75-12.35-216.38,41.6-210.62Z"></path><path class="cls-5" d="M507.02,156.07c43.68,1.59,70.36-5.23,167.13,1.33,22.88,1.55,48.01,4.37,76.11,6.16,18.99,1.14,38.38,2.67,57.77,5.04,36.81,4.5,82.63,10.16,103.03,17.08,25.89,8.78,5.94,33.12,3.01,45.59-6.01,25.54-7.84,53.52-1.89,129.93,6.42,84.72,18.91,162.66-13.52,203.13s-78.21,78.09-170.17,93.08c-1.91,.31-3.73,1.02-5.61,1.48-1.15,.28-2.57,.78-4.34,.95-23.28,2.29-59.8-2.4-116.04-36.72-94.29-57.54-132.06-145.5-130.3-254.96,1.85-115.37-19.86-214.08,34.82-212.1Z"></path><path class="cls-29" d="M501.48,159.85c44.39-1.42,72.51-12.56,172.32-7.69,23.47,1.15,49.13,3.73,77.64,5.5,19.37,1.13,39.1,2.73,58.83,5.24,37.58,4.78,84.63,10.9,104.83,18.18,25.96,9.36,3.31,35.08-.86,47.91-8.66,26.6-11.83,54.84-5.7,132.82,6.58,85.93,22.46,165.81-8.25,206.47s-74.41,78.95-168.19,92.56c-1.91,.28-3.72,.95-5.6,1.36-1.16,.26-2.58,.72-4.33,.87-23.89,2-60.27-3.35-115.44-37.12-94.09-57.6-132.68-145.94-133.3-252.52-.66-113-27.38-211.8,28.05-213.57Z"></path><path class="cls-42" d="M495.93,163.62c45.1-4.43,74.66-19.88,177.51-16.7,24.06,.74,50.26,3.08,79.17,4.83,19.74,1.12,39.83,2.79,59.9,5.44,38.34,5.05,86.63,11.64,106.63,19.29,26.03,9.95,.69,37.02-4.73,50.23-11.32,27.62-15.82,56.16-9.5,135.7,6.75,87.15,26,168.97-2.99,209.8-28.8,40.56-70.59,79.85-166.22,92.03-1.9,.24-3.72,.88-5.59,1.25-1.17,.23-2.59,.67-4.32,.79-24.49,1.69-60.74-4.3-114.84-37.52-93.89-57.67-133.32-146.4-136.3-250.08-3.17-110.64-34.9-209.53,21.28-215.04Z"></path><path class="cls-8" d="M490.39,167.4c45.81-7.45,76.95-31.34,182.7-25.72,24.61,1.31,51.39,2.44,80.7,4.16,20.11,1.11,40.56,2.85,60.97,5.63,39.1,5.33,88.62,12.39,108.43,20.4,26.1,10.55-1.94,38.94-8.59,52.55-13.98,28.61-19.81,57.48-13.31,138.58,6.91,88.37,29.54,172.12,2.27,213.13s-66.78,80.79-164.24,91.51c-1.89,.21-3.71,.81-5.59,1.14-1.18,.21-2.6,.61-4.32,.71-25.1,1.37-61.21-5.24-114.23-37.92-93.69-57.74-133.98-146.86-139.29-247.65-5.71-108.29-42.43-207.26,14.5-216.52Z"></path><path class="cls-2" d="M484.85,171.18c46.51-10.47,79.03-38.55,187.9-34.73,25.22,.88,52.51,1.8,82.23,3.49,20.48,1.09,41.29,2.91,62.03,5.83,39.86,5.61,90.62,13.15,110.23,21.51,26.16,11.15-4.56,40.85-12.46,54.87-16.65,29.57-23.8,58.8-17.11,141.46,7.07,89.59,33.07,175.27,7.53,216.47-25.34,40.87-62.96,81.77-162.27,90.98-1.89,.17-3.71,.73-5.58,1.03-1.19,.19-2.61,.56-4.31,.63-25.7,1.04-61.67-6.2-113.63-38.32-93.49-57.81-134.66-147.33-142.29-245.21-8.26-105.95-49.96-205,7.73-217.99Z"></path><path class="cls-17" d="M479.31,174.95c47.21-13.5,81.12-45.72,193.09-43.74,25.82,.46,53.64,1.15,83.76,2.82,20.86,1.08,42.01,2.97,63.1,6.03,40.62,5.89,92.61,13.9,112.03,22.61,26.22,11.76-7.19,42.75-16.32,57.19-19.31,30.51-27.78,60.12-20.92,144.34,7.24,90.81,36.61,178.42,12.8,219.8s-59.14,82.79-160.29,90.45c-1.88,.14-3.7,.66-5.57,.91-1.2,.16-2.62,.5-4.3,.55-26.3,.69-62.14-7.15-113.03-38.73-93.29-57.88-135.35-147.81-145.29-242.78-10.84-103.62-57.49-202.75,.95-219.46Z"></path><path class="cls-25" d="M473.77,178.73c47.9-16.53,83.28-49.05,198.28-52.76,26.41-.85,54.77,.51,85.29,2.15,21.23,1.07,42.74,3.03,64.16,6.23,41.38,6.17,94.6,14.67,113.82,23.72,26.27,12.37-9.8,44.64-20.19,59.51-21.96,31.43-31.77,61.43-24.72,147.23,7.4,92.02,40.15,181.57,18.06,223.13s-55.33,83.85-158.32,89.93c-1.87,.11-3.7,.58-5.57,.8-1.21,.14-2.63,.45-4.29,.47-26.91,.33-62.6-8.1-112.43-39.13-93.08-57.96-136.08-148.29-148.29-240.34-13.44-101.29-65.03-200.5-5.82-220.93Z"></path><path class="cls-23" d="M468.22,182.51c48.59-19.56,85.45-56.33,203.48-61.77,27.01-1.25,55.89-.13,86.82,1.48,21.6,1.06,43.47,3.09,65.23,6.42,42.14,6.45,96.59,15.43,115.62,24.83,26.33,12.99-12.41,46.53-24.05,61.83-24.6,32.35-35.76,62.75-28.53,150.11,7.57,93.24,43.69,184.71,23.32,226.46-20.15,41.32-51.51,84.96-156.34,89.4-1.87,.08-3.7,.51-5.56,.69-1.22,.12-2.64,.39-4.29,.39-27.51-.04-63.07-9.06-111.83-39.53-92.88-58.04-136.82-148.78-151.28-237.9-16.06-98.97-72.58-198.25-12.59-222.41Z"></path><path class="cls-7" d="M462.68,186.28c49.27-22.6,87.62-63.59,208.67-70.79,27.6-1.64,57.02-.78,88.35,.81,21.98,1.05,44.2,3.15,66.3,6.62,42.9,6.73,98.57,16.2,117.42,25.93,26.37,13.62-15.02,48.4-27.92,64.15-27.23,33.25-39.75,64.07-32.33,152.99,7.73,94.46,47.22,187.86,28.59,229.8s-47.71,86.1-154.36,88.88c-1.86,.05-3.69,.43-5.55,.58-1.23,.09-2.65,.33-4.28,.31-28.11-.43-63.53-10.02-111.23-39.93-92.67-58.12-137.6-149.27-154.28-235.47-18.71-96.66-80.13-196.01-19.37-223.88Z"></path><path class="cls-39" d="M457.14,190.06c49.95-25.63,89.79-70.86,213.86-79.8,28.19-2.03,58.15-1.42,89.88,.14,22.35,1.04,44.93,3.22,67.36,6.82,43.66,7.01,100.55,16.97,119.22,27.04,26.42,14.25-17.63,50.28-31.79,66.47-29.86,34.14-43.74,65.39-36.14,155.87,7.9,95.68,50.75,191.01,33.85,233.13-16.7,41.61-43.9,87.28-152.39,88.35-1.85,.02-3.69,.36-5.55,.46-1.24,.07-2.66,.27-4.27,.23-28.7-.84-63.99-10.98-110.63-40.33-92.46-58.21-138.4-149.76-157.28-233.03-21.39-94.34-87.69-193.77-26.14-225.35Z"></path><path class="cls-20" d="M451.6,193.84c50.62-28.67,91.97-78.12,219.05-88.81,28.78-2.42,59.27-2.07,91.41-.53,22.72,1.03,45.65,3.28,68.43,7.01,44.43,7.29,102.53,17.75,121.02,28.15,26.46,14.89-20.23,52.15-35.65,68.79-32.48,35.03-47.73,66.71-39.95,158.76,8.06,96.89,54.29,194.15,39.11,236.46-14.98,41.76-40.11,88.51-150.41,87.82-1.85-.01-3.68,.28-5.54,.35-1.25,.05-2.66,.22-4.26,.15-29.3-1.26-64.45-11.94-110.02-40.73-92.25-58.29-139.23-150.25-160.28-230.59-24.1-92.03-95.25-191.52-32.92-226.83Z"></path><path class="cls-15" d="M446.05,197.61c51.29-31.7,94.15-85.37,224.25-97.83,29.38-2.81,60.4-2.71,92.94-1.2,23.09,1.02,46.37,3.39,69.49,7.21,45.17,7.66,104.51,18.52,122.82,29.26,26.49,15.53-22.82,54.02-39.52,71.11-35.09,35.92-51.72,68.03-43.75,161.64,8.22,98.11,57.82,197.3,44.37,239.8-13.26,41.91-36.33,89.77-148.44,87.3-1.84-.04-3.68,.21-5.53,.24-1.26,.02-2.67,.16-4.25,.07-29.89-1.7-64.91-12.9-109.42-41.14-92.03-58.39-140.1-150.73-163.27-228.16-26.85-89.7-102.82-189.28-39.69-228.3Z"></path><path class="cls-13" d="M440.51,201.39c51.96-34.74,96.33-92.62,229.44-106.84,29.97-3.2,61.53-3.35,94.48-1.87,23.47,1,47.1,3.44,70.56,7.41,45.93,7.94,106.48,19.3,124.62,30.36,26.52,16.17-25.42,55.89-43.38,73.43-37.7,36.81-55.71,69.35-47.56,164.52,8.39,99.33,61.35,200.44,49.64,243.13-11.54,42.05-32.56,91.08-146.46,86.77-1.84-.07-3.67,.13-5.53,.13-1.27,0-2.68,.1-4.25-.01-30.48-2.15-65.37-13.86-108.82-41.54-91.82-58.48-141-151.21-166.27-225.72-29.63-87.37-110.39-187.03-46.46-229.77Z"></path><path class="cls-12" d="M434.97,205.16c52.63-37.77,98.51-99.86,234.63-115.86,30.57-3.59,62.66-4,96.01-2.54,23.84,.99,47.83,3.5,71.63,7.61,46.69,8.21,108.45,20.09,126.42,31.47,26.55,16.82-28.01,57.76-47.25,75.75-40.29,37.69-59.7,70.66-51.36,167.4,8.55,100.55,64.87,203.59,54.9,246.46s-28.8,92.42-144.49,86.25c-1.83-.1-3.67,.06-5.52,.01-1.28-.03-2.69,.04-4.24-.09-31.06-2.62-65.82-14.83-108.22-41.94-91.6-58.58-141.93-151.67-169.27-223.28-32.46-85.02-117.97-184.79-53.24-231.25Z"></path><path class="cls-3" d="M429.43,208.94c53.29-40.81,100.7-107.1,239.83-124.87,31.17-3.98,63.78-4.64,97.54-3.21,24.21,.98,48.56,3.56,72.69,7.8,47.45,8.49,110.41,20.87,128.22,32.58,26.57,17.47-30.59,59.62-51.11,78.07-42.89,38.57-63.69,71.98-55.17,170.29,8.72,101.76,68.4,206.73,60.16,249.8s-25.05,93.81-142.51,85.72c-1.83-.13-3.66-.02-5.51-.1-1.28-.05-2.7-.02-4.23-.17-31.64-3.1-66.28-15.79-107.62-42.34-91.38-58.68-142.89-152.11-172.27-220.85-35.32-82.65-125.54-182.54-60.01-232.72Z"></path><path class="cls-6" d="M423.89,212.72c53.95-43.84,102.9-114.34,245.02-133.89,31.76-4.37,64.91-5.28,99.07-3.88,24.59,.97,49.28,3.62,73.76,8,48.21,8.76,112.38,21.66,130.02,33.69,26.58,18.13-33.18,61.49-54.98,80.4-45.48,39.45-67.68,73.3-58.97,173.17,8.88,102.98,71.92,209.88,65.42,253.13s-21.32,95.24-140.54,85.2c-1.82-.15-3.66-.1-5.51-.21-1.29-.08-2.7-.08-4.22-.25-32.21-3.61-66.73-16.76-107.02-42.74-91.15-58.79-143.88-152.53-175.26-218.41-38.23-80.25-133.12-180.29-66.79-234.19Z"></path><path class="cls-33" d="M418.34,216.49c54.61-46.87,105.09-121.57,250.21-142.9,32.36-4.76,66.04-5.93,100.6-4.55,24.96,.96,50.01,3.68,74.82,8.2,48.98,9.04,114.34,22.44,131.82,34.79,26.59,18.79-35.77,63.35-58.85,82.72-48.07,40.33-71.67,74.62-62.78,176.05,9.04,104.2,75.45,213.03,70.69,256.46s-17.61,96.7-138.56,84.67c-1.82-.18-3.65-.17-5.5-.32-1.3-.11-2.71-.15-4.21-.34-32.77-4.12-67.19-17.73-106.41-43.15-90.92-58.91-144.9-152.92-178.26-215.98-41.17-77.81-140.71-178.04-73.56-235.66Z"></path><path class="cls-14" d="M412.8,220.27c55.27-49.9,107.29-128.81,255.4-151.91,32.96-5.14,67.16-6.57,102.13-5.22,25.33,.95,50.74,3.74,75.89,8.39,49.74,9.32,116.29,23.23,133.62,35.9,26.6,19.45-38.35,65.22-62.71,85.04-50.65,41.2-75.66,75.94-66.59,178.93,9.21,105.42,78.97,216.17,75.95,259.79s-13.91,98.21-136.59,84.14c-1.81-.21-3.65-.25-5.49-.44-1.31-.13-2.72-.21-4.21-.42-33.33-4.66-67.64-18.7-105.81-43.55-90.69-59.02-145.95-153.28-181.26-213.54-44.15-75.33-148.29-175.78-80.33-237.14Z"></path><path class="cls-38" d="M407.26,224.05c55.92-52.92,109.49-136.04,260.6-160.93,33.56-5.53,68.29-7.22,103.66-5.88,25.7,.94,51.47,3.8,76.95,8.59,50.5,9.59,118.25,24.02,135.41,37.01,26.59,20.12-40.93,67.08-66.58,87.36-53.23,42.08-79.65,77.26-70.39,181.82,9.37,106.64,82.49,219.32,81.21,263.13s-10.23,99.75-134.61,83.62c-1.81-.23-3.64-.33-5.49-.55-1.32-.16-2.72-.27-4.2-.5-33.89-5.21-68.09-19.68-105.21-43.95-90.46-59.15-147.01-153.61-184.26-211.1-47.16-72.81-155.88-173.53-87.11-238.61Z"></path><path class="cls-28" d="M401.72,227.82c56.48-56.05,111.69-143.26,265.79-169.94,34.16-5.91,69.42-7.86,105.19-6.55,26.08,.93,52.19,3.86,78.02,8.79,51.26,9.87,120.2,24.81,137.21,38.11,26.59,20.79-43.51,68.94-70.44,89.68-55.81,42.96-83.64,78.58-74.2,184.7,9.54,107.85,86,222.47,86.48,266.46s-6.57,101.32-132.63,83.09c-1.8-.26-3.64-.41-5.48-.66-1.33-.18-2.73-.33-4.19-.58-34.43-5.78-68.54-20.65-104.61-44.35-90.22-59.28-148.1-153.89-187.25-208.67-50.21-70.23-163.58-171.39-93.88-240.08Z"></path><path class="cls-34" d="M396.17,231.6c57.16-59.05,113.89-150.49,270.98-178.96,34.76-6.3,70.54-8.5,106.72-7.22,26.45,.91,52.92,3.92,79.09,8.99,52.02,10.15,122.14,25.6,139.01,39.22,26.57,21.46-46.09,70.81-74.31,92-58.38,43.84-87.63,79.89-78,187.58,9.7,109.07,89.45,225.63,91.74,269.79,2.1,43.25-2.93,102.93-130.66,82.57-1.8-.29-3.63-.48-5.47-.77-1.34-.21-2.74-.39-4.18-.66-34.97-6.37-68.99-21.63-104.01-44.75-89.97-59.42-149.19-154.13-190.25-206.23-53.27-67.6-171.15-169.11-100.66-241.56Z"></path><path class="cls-11" d="M390.63,235.38c57.83-62.06,116.1-157.71,276.18-187.97,35.36-6.68,71.67-9.15,108.25-7.89,26.82,.9,53.65,3.98,80.15,9.18,52.78,10.42,124.09,26.39,140.81,40.33,26.56,22.14-48.67,72.67-78.17,94.32-60.96,44.72-91.61,81.21-81.81,190.46,9.87,110.29,92.98,228.78,97,273.13,3.82,43.4,.68,104.58-128.68,82.04-1.8-.31-3.63-.56-5.47-.89-1.35-.24-2.74-.45-4.18-.74-35.5-6.97-69.44-22.61-103.41-45.15-89.72-59.56-150.29-154.32-193.25-203.79-56.35-64.89-178.71-166.83-107.43-243.03Z"></path><path class="cls-37" d="M385.09,239.15c58.5-65.06,118.36-164.68,281.37-196.98,35.98-7.01,72.8-9.79,109.78-8.56,27.2,.89,54.38,4.03,81.22,9.38,53.54,10.7,126.03,27.18,142.61,41.44,26.53,22.81-51.28,74.49-82.04,96.64-63.6,45.49-95.6,82.53-85.61,193.34,10.03,111.51,96.52,231.93,102.26,276.46,5.55,43.55,4.28,106.26-126.71,81.51-1.8-.34-3.62-.64-5.46-1-1.35-.26-2.75-.52-4.17-.82-36.02-7.6-69.85-23.65-102.8-45.56-89.36-59.88-151.38-154.46-196.25-201.36-59.44-62.13-186.28-164.54-114.2-244.5Z"></path><path class="cls-22" d="M379.55,242.93c59.17-68.07,120.55-172.02,286.56-206,36.57-7.43,73.92-10.43,111.31-9.23,27.57,.88,55.1,4.09,82.28,9.58,54.3,10.97,127.97,27.97,144.41,42.54,26.51,23.49-53.84,76.37-85.91,98.96-66.13,46.42-99.59,83.85-89.42,196.23,10.19,112.72,100.05,235.09,107.53,279.79,7.27,43.71,7.85,107.97-124.73,80.99-1.79-.36-3.61-.72-5.45-1.11-1.36-.29-2.75-.58-4.16-.9-36.53-8.23-70.31-24.6-102.2-45.96-89.15-59.96-152.46-154.56-199.24-198.92-62.53-59.29-193.85-162.26-120.98-245.97Z"></path><path class="cls-10" d="M665.76,31.69c64.65-13.63,131.46-13.35,196.19-.13,55.06,11.25,129.9,28.76,146.21,43.65,26.47,24.17-56.4,78.26-89.77,101.28-68.66,47.35-103.58,85.17-93.22,199.11s103.58,238.24,112.79,283.13c9.21,44.89,11.51,112.79-132.36,78.26-143.87-34.53-238.24-186.45-303.84-242.84-65.6-56.4-201.41-159.98-127.75-247.45,59.85-71.07,122.73-179.37,291.75-215.01Z"></path></svg>