<svg xmlns="http://www.w3.org/2000/svg" id="Ebene_1" viewBox="0 0 166.523 99.128"><defs><style>.cls-1{fill:#acb6bc;}.cls-2{fill:#c8d5dc;}</style></defs><g id="Ebene_2"><g id="Ebene_1-2"><g><g><g><polygon class="cls-1" points="106.7 11.286 106.694 11.794 106.619 18.767 99.138 18.685 99.185 14.296 99.192 13.578 99.219 11.204 106.24 11.282 106.7 11.286"></polygon><path class="cls-2" d="M119.592,42.782c-.141,4.694-1.187,9.317-3.082,13.615l-.071,.159-.274,.603c-.024,.051-.047,.105-.074,.156-5.505,11.553-16.63,19.404-29.359,20.72-.24,.024-.481,.048-.721,.064-.051,.007-.098,.01-.149,.014-.237,.017-.474,.034-.711,.044-.833,.051-1.676,.071-2.519,.061-.264-.003-.528-.007-.793-.017-8.153-.25-15.985-3.232-22.241-8.467-.18-.149-.359-.301-.535-.454-.163-.139-.322-.281-.481-.423l-.542-.498c-14.778-13.775-15.591-36.921-1.816-51.698,.559-.599,1.137-1.18,1.735-1.74,2.174-2.043,4.589-3.815,7.19-5.277l.61-.332c5.652-3.027,12.005-4.505,18.413-4.284,3.541,.112,7.048,.736,10.411,1.852l-1.558,4.68c-.677-.227-1.36-.428-2.049-.603l-.003-.003h-.004c-.559-.146-1.121-.275-1.687-.386h-.003c-.562-.115-1.128-.213-1.693-.295-.251-.037-.498-.071-.749-.098-.004-.003-.009-.004-.014-.003-.254-.03-.508-.058-.765-.081-.677-.068-1.358-.108-2.042-.132-3.859-.132-7.709,.446-11.359,1.703-.217,.074-.434,.152-.65,.234-.02,.007-.044,.017-.064,.024-.213,.078-.427,.159-.64,.247-16.251,6.458-24.189,24.867-17.731,41.118,.729,1.834,1.627,3.596,2.684,5.262,.122,.196,.251,.393,.379,.589,.115,.176,.234,.349,.359,.522,.132,.193,.268,.386,.41,.576,7.281,10.003,19.711,14.861,31.845,12.446,.224-.044,.447-.091,.671-.142,.044-.01,.085-.02,.129-.03,.223-.048,.444-.101,.664-.156,5.233-1.306,10.043-3.935,13.967-7.637,2.078-1.948,3.886-4.165,5.374-6.594,.006-.006,.01-.013,.014-.02,.135-.224,.271-.447,.4-.677,.01-.014,.017-.03,.027-.044,5.873-10.274,5.543-22.961-.857-32.915l4.142-2.675c4.037,6.24,6.067,13.566,5.816,20.994Z"></path></g><g><g><path class="cls-2" d="M68.371,53.673c-.047,.292-.117,.58-.21,.86-.113,.338-.262,.662-.444,.969-.312,.525-.633,1.064-1.246,1.176-.393,.071-.677-.074-1.006-.24-.362-.202-.753-.349-1.158-.437-.224-.051-.624-.122-.786-.034-.234,.125-.359,.444-.522,.843-.085,.197-.144,.404-.176,.616-.015,.196-.1,.38-.24,.518-.342,.328-.779,.295-1.131,.264-.284-.024-.464-.03-.555,.064-.054,.061-.064,.132-.071,.301-.01,.203-.024,.505-.291,.738-.295,.254-.623,.193-.911,.139-.211-.047-.427-.067-.643-.058-.575,.038-1.111,.301-1.494,.732-.029,.033-.056,.068-.081,.105l-.003,.003h0c-.065,.091-.117,.19-.156,.295-.112,.298-.119,.559-.02,.735,.054,.098,.433,.305,.877,.542,.908,.488,1.05,.562,1.168,.843,.097,.253,.098,.532,.003,.786-.019,.056-.032,.114-.037,.173,.049,.002,.097,.006,.146,.014,.261,.021,.516,.093,.749,.213,.176,.092,.708,.362,.85,.891,.092,.349-.041,.6-.176,.867-.054,.101-.119,.22-.18,.366-.096,.229-.148,.473-.152,.721-.034,.417-.09,.832-.166,1.243-.159,.891-.227,1.26-.396,1.494-.088,.121-.194,.229-.315,.318-.18-.149-.359-.301-.535-.454,.12-.063,.223-.153,.301-.264,.078-.108,.169-.596,.281-1.216,.105-.586,.132-.928,.156-1.179,.009-.317,.078-.63,.203-.921,.068-.169,.139-.305,.2-.423,.122-.227,.146-.291,.122-.376-.041-.159-.21-.315-.501-.464-.163-.08-.34-.13-.522-.146-.2-.024-.444-.054-.62-.298-.193-.274-.112-.559-.058-.745,.041-.152,.064-.24,.024-.336-.027-.061-.288-.203-.864-.511-.691-.369-1.003-.539-1.155-.813-.193-.352-.2-.813-.02-1.297,.089-.232,.219-.446,.383-.633l.003-.003c.037-.041,.074-.081,.112-.118,.494-.482,1.143-.773,1.832-.82,.27-.014,.542,.009,.806,.068,.234,.044,.305,.051,.349,.014,.041-.034,.048-.088,.054-.254,.01-.207,.02-.491,.261-.738,.322-.336,.752-.298,1.101-.271,.298,.024,.488,.03,.6-.078q.027-.024,.048-.142c.04-.26,.111-.514,.213-.756,.196-.488,.383-.952,.833-1.189,.19-.102,.505-.196,1.246-.034,.464,.101,.911,.269,1.327,.498,.288,.149,.413,.21,.572,.18,.312-.058,.532-.427,.786-.857,.27-.458,.456-.96,.549-1.483,.048-.248,.076-.499,.085-.752,.011-.206,.01-.413-.003-.62l.677-.041c.028,.472,.003,.945-.072,1.412Z"></path><path class="cls-2" d="M96.506,66.679c-.193,.322-.525,.322-.816,.325-.36-.01-.719,.046-1.06,.163-.326,.107-.622,.289-.864,.532-.336,.31-.709,.577-1.111,.796-.393,.22-.807,.399-1.236,.535-.345,.119-.518,.176-.698,.4-.396,.492-.328,1.179-.264,1.785,.036,.381,.119,.757,.247,1.118,.02,.061,.044,.122,.068,.18,.131,.311,.283,.613,.454,.904,.288,.501,.535,.931,.406,1.466-.18,.762-.986,.881-1.839,1.006-.789,.115-1.683,.247-2.32,.854-.371,.37-.634,.835-.759,1.345-.237,.017-.474,.034-.711,.044,.176-.782,.51-1.408,1.003-1.876,.792-.759,1.842-.912,2.689-1.036,.745-.108,1.209-.193,1.28-.491,.061-.261-.074-.515-.335-.975-.21-.35-.39-.717-.539-1.097l-.061-.163c-.13-.393-.217-.798-.261-1.209-.064-.664-.156-1.568,.413-2.279,.305-.376,.63-.488,1.009-.613,.389-.124,.764-.286,1.121-.484,.359-.198,.693-.438,.996-.715,.31-.301,.684-.529,1.094-.667,.409-.137,.839-.204,1.27-.196,.083,.003,.165,0,.247-.01,.088-.268-.782-1.595-2.272-2.574-.75-.54-1.63-.873-2.551-.963-.369-.03-.741-.02-1.107,.03-.381,.051-.755,.146-1.114,.285l-.244-.63c.39-.148,.794-.255,1.206-.318,.435-.065,.876-.08,1.314-.044,1.033,.102,2.021,.471,2.868,1.07,1.107,.732,3.038,2.567,2.475,3.506Z"></path><path class="cls-2" d="M116.586,56.529c-.112,.254-.227,.508-.349,.759-.786,.149-1.575,.288-2.357,.41-1.236,.193-2.201,.312-2.96,.376-.336,.027-.633,.041-.897,.047-.081,.003-.159,.003-.234,.003-1.172,0-1.588-.22-1.934-.498-.058-.047-.122-.102-.193-.166-.373-.322-.942-.813-1.609-.776-.227,.01-.593,.122-1.263,.322-.366,.108-.613,.193-.796,.251-.41,.139-.596,.203-.84,.058-.403-.24-.362-.708-.322-1.202,.041-.471,.088-1.053-.159-1.673-.083-.208-.203-.399-.356-.562-.041-.044-.081-.091-.129-.142-.129-.146-.285-.318-.481-.562-.684-.855-1.265-1.787-1.734-2.777l.61-.291c.445,.943,.999,1.829,1.653,2.642,.186,.234,.336,.4,.461,.539,.123,.132,.238,.271,.345,.416,.107,.151,.194,.315,.261,.488,.308,.765,.247,1.466,.203,1.981-.023,.179-.027,.359-.01,.539,.064-.017,.173-.054,.285-.092,.186-.061,.44-.149,.803-.257,.756-.224,1.128-.336,1.436-.352,.948-.041,1.66,.572,2.086,.942,.064,.058,.122,.108,.176,.149,.271,.22,.691,.413,2.157,.328,.268-.014,.569-.037,.908-.074,.65-.064,1.446-.169,2.425-.325,.935-.146,1.873-.312,2.814-.498Z"></path><path class="cls-2" d="M111.45,32.933c-.058-.42-.284-.606-.735-.975-.251-.203-.593-.484-1.063-.921-.928-.86-1.467-1.497-1.602-1.896-.079-.233-.124-.476-.132-.722-.013-.268-.03-.548-.312-.782-.782-.65-2.283,.19-3.092,.644-.901,.505-1.829,1.023-2.496,2.154-.681,1.155-1.148,3.129-.257,3.827,.308,.24,.606,.203,1.016,.149,.297-.043,.597-.069,.897-.078,.908-.03,1.555,.109,2.631,.332,.617,.125,1.224,.297,1.815,.515,.352,.125,.623,.224,.931,.224,.155,0,.309-.024,.457-.068,1.145-.311,2.07-1.456,1.941-2.401Zm-2.117,1.751c-.336,.091-.511,.027-.982-.142-.622-.229-1.261-.41-1.91-.542-.996-.207-1.679-.349-2.547-.349-.078,0-.159,0-.24,.003-.323,.011-.645,.039-.965,.085-.369,.047-.437,.044-.508-.013-.447-.349-.234-1.835,.42-2.946,.261-.443,.606-.831,1.016-1.141,.39-.287,.801-.544,1.229-.769,1.263-.708,2.046-.945,2.327-.711,.048,.037,.058,.064,.071,.301,.009,.308,.064,.612,.163,.904,.122,.352,.437,.918,1.785,2.167,.488,.454,.84,.742,1.094,.952,.43,.349,.474,.4,.494,.539,.081,.606-.651,1.442-1.447,1.662h0Z"></path><path class="cls-2" d="M80.91,17.876l-.549,.4c-.225-.313-.477-.607-.752-.877-.436-.429-.939-.784-1.49-1.05-.129-.061-.244-.108-.352-.149-.325-.121-.669-.188-1.016-.196l-.122-.01h-.003c-.425-.016-.841-.126-1.219-.321-1.311-.65-2.293-1.998-3.251-3.532-.048-.074-.092-.149-.139-.223-.156-.254-.315-.515-.474-.776l-.03-.051c-.22-.362-.43-.704-.796-.816-.336-.105-.62,.034-1.06,.268-.339,.183-.721,.386-1.185,.423-.796,.061-1.615-.379-2.469-1.348l.61-.333c.654,.711,1.255,1.045,1.805,1.002,.322-.024,.613-.18,.921-.342,.447-.24,.955-.511,1.575-.322,.616,.19,.928,.704,1.179,1.114l.027,.051c.183,.305,.366,.603,.549,.894,.044,.071,.084,.142,.129,.21,.888,1.399,1.785,2.611,2.909,3.17,.337,.171,.709,.262,1.087,.268,.302,.008,.603,.052,.894,.132,.249,.071,.492,.164,.725,.278,.015,.007,.03,.015,.044,.024,.845,.421,1.589,1.019,2.181,1.754,.091,.115,.182,.237,.274,.359Z"></path><path class="cls-2" d="M91.822,10.927c-.559-.146-1.121-.274-1.687-.386h-.003c-.068-.058-.135-.115-.2-.173-.623-.532-.972-.803-1.477-.759-.359,.034-.542,.203-.779,.535-.03,.044-.061,.088-.095,.135-.02,.03-.041,.061-.064,.095-.329,.491-.735,1.101-1.646,1.568-1.131,.579-2.201,.518-3.146,.464-.928-.054-1.656-.098-2.178,.477-.124,.134-.212,.297-.257,.474-.092,.291-.22,.57-.379,.83-.377,.616-.872,1.151-1.456,1.575-.22,.16-.45,.306-.687,.437-.325-.121-.669-.188-1.016-.196l-.122-.01c.367-.146,.721-.324,1.057-.532,.67-.402,1.234-.96,1.643-1.626,.135-.217,.242-.45,.318-.694,.076-.265,.213-.509,.4-.711,.738-.816,1.7-.759,2.716-.701,.901,.054,1.832,.105,2.797-.389,.52-.267,.96-.668,1.273-1.162,.027-.037,.051-.078,.078-.115,.016-.021,.031-.042,.044-.064,.325-.488,.664-.992,1.44-1.067,.809-.078,1.351,.386,1.978,.921,.448,.404,.933,.763,1.449,1.074Z"></path><path class="cls-2" d="M103.08,53.684c-.012,.007-.024,.013-.037,.017-.227,.108-.474,.168-.725,.176-.667,.041-1.368-.19-2.049-.193-.806-.003-1.588,.308-2.354,.62-1.978,.806-3.956,1.61-5.933,2.411-.515,.21-1.044,.43-1.46,.86-1.023,1.057-1.009,2.892-.674,4.572,.047,.223,.098,.447,.152,.664,.041,.163,.081,.318,.125,.471,.159,.562,.332,1.155,.227,1.737-.105,.579-.62,1.084-1.053,.833-.227-.132-.366-.42-.566-.603-.853-.782-1.91,.671-2.96,.826-1.355,.2-2.506-1.829-3.83-1.433-.318,.095-.603,.328-.925,.42-.874,.254-1.7-.586-2.255-1.464-.552-.881-1.057-1.913-1.897-2.306-.904-.423-1.954,.02-2.858-.396-1.663-.769-1.731-3.671-2.824-5.409-.387-.643-.977-1.14-1.676-1.412-.376-.135-.789-.196-1.135-.403-.127-.076-.241-.172-.339-.285-.116-.139-.205-.297-.264-.468-.203-.532-.196-1.199-.169-1.805,.095-2.11,.188-4.219,.281-6.326,.024-.528,.068-1.114,.383-1.466,.315-.359,.789-.356,1.216-.356,1.392,.003,2.967-.366,3.729-1.822,.633-1.212,.498-2.791,.339-4.223-.139-1.226-.291-2.503-.85-3.522-.278-.508-.654-.952-.782-1.544-.2-.928,.274-1.859,.359-2.818,.105-1.185-.4-2.323-1.006-3.244s-1.338-1.727-1.832-2.75c-.301-.626-.501-1.44-.203-2.069,.268-.566,.955-.4,1.92-.901,.25-.078,.483-.204,.684-.372,.113-.089,.207-.201,.274-.329,.078-.217,.112-.579,.372-.877,.606-.691,1.7-.572,2.096-.528,1.321,.146,1.382,.86,2.218,.738,.85-.125,1.517-1.016,2.357-1.243,.148-.04,.3-.061,.454-.064,.299,.003,.598,.035,.891,.095,.044,.007,.091,.017,.136,.024,2.373,.423,4.717,.991,7.021,1.7,.61,.186,1.25,.406,1.676,.979,.478,.64,.583,1.568,.664,2.435,.105,1.148,.21,2.333-.058,3.438-.135,.562-.369,1.094-.437,1.676-.068,.579,.085,1.267,.511,1.514,.234,.139,.515,.122,.735,.285,.376,.274,.437,.914,.4,1.453-.2,2.801-1.903,5.412-1.395,8.152,.332,1.785,1.541,3.106,2.801,4.047,.537,.423,1.135,.763,1.775,1.006,.955,.328,1.961,.291,2.943,.427,1.778,.24,3.505,1.06,4.962,2.354,.904,.806,1.741,1.856,2.025,3.194s-.152,2.983-1.178,3.508Z"></path></g><circle class="cls-2" cx="83.007" cy="41.275" r="1.355"></circle></g><rect class="cls-1" x="81.625" y="39.92" width="2.764" height="2.764"></rect></g><g><path class="cls-2" d="M31.959,93.947h-1.205c0-.133-.447-.837-1.341-2.111-.936-1.343-1.47-2.261-1.6-2.755h-.078c.077,.641,.118,1.286,.122,1.931,0,.803,.023,1.782,.068,2.936h-1.2c.049-1.008,.073-2.115,.073-3.321,0-1.187-.024-2.196-.073-3.029h1.448c0,.172,.402,.86,1.205,2.063,.855,1.278,1.346,2.144,1.473,2.599h.073c-.074-.648-.113-1.299-.117-1.951,0-.881-.023-1.785-.068-2.712h1.22c-.046,.806-.068,1.816-.068,3.029,0,1.222,.023,2.329,.068,3.32Z"></path><path class="cls-2" d="M37.64,91.133c0,.166-.01,.382-.029,.649l-3.141,.054c.038,.354,.207,.681,.473,.917,.295,.253,.675,.384,1.063,.366,.526-.005,1.049-.079,1.556-.219l-.098,.946c-.538,.176-1.102,.259-1.667,.244-.839,0-1.482-.236-1.929-.707-.441-.456-.683-1.068-.671-1.702-.012-.658,.214-1.298,.636-1.802,.424-.509,1.014-.763,1.768-.763,.689,0,1.201,.187,1.536,.561,.335,.374,.502,.86,.502,1.458Zm-1.141-.044c0-.748-.319-1.122-.956-1.122-.608,0-.969,.387-1.083,1.161l2.038-.039Z"></path><path class="cls-2" d="M41.61,93.035l-.083,.868c-.273,.106-.565,.156-.858,.146-.527,0-.923-.143-1.19-.429-.267-.286-.4-.837-.4-1.654,0-.491,.003-1.047,.01-1.667-.166,0-.39,.01-.673,.029l.034-.961c.25,.02,.483,.029,.697,.029,.003-.172,.016-.626,.039-1.361l1.156-.141c-.049,.647-.073,1.148-.073,1.502,.273,0,.681-.013,1.224-.039l-.039,.97c-.494-.019-.896-.029-1.205-.029-.007,.432-.01,.886-.01,1.361,0,.579,.059,.967,.176,1.164,.117,.197,.323,.295,.619,.295,.195-.002,.389-.03,.576-.083Z"></path><path class="cls-2" d="M46.067,92.971l-.024,.976h-3.687l.068-.931c.162-.146,.544-.598,1.146-1.356,.644-.809,.966-1.273,.966-1.39v-.079c-.774,0-1.486,.028-2.136,.083l.024-.961h3.54l-.073,.936c-.205,.224-.571,.679-1.097,1.366-.615,.8-.922,1.258-.922,1.375v.073c.738,0,1.47-.031,2.195-.092Z"></path><path class="cls-2" d="M54.25,89.314c0,.185-.271,.946-.812,2.282s-.812,2.12-.812,2.351h-1.136c0-.149-.133-.61-.4-1.38-.332-.962-.543-1.617-.634-1.965h-.078c-.085,.335-.286,.982-.605,1.941-.257,.761-.385,1.229-.385,1.405h-1.142c0-.198-.258-.989-.773-2.373-.515-1.383-.773-2.137-.773-2.261h1.404c0,.133,.142,.692,.427,1.675,.285,.983,.427,1.568,.427,1.753h.073c0-.224,.163-.807,.488-1.749,.325-.941,.488-1.501,.488-1.68h1.146c0,.124,.159,.685,.476,1.682,.317,.998,.475,1.58,.475,1.746h.068c0-.182,.144-.736,.432-1.661,.288-.925,.432-1.514,.432-1.768h1.214Z"></path><path class="cls-2" d="M59.385,91.133c0,.166-.01,.382-.029,.649l-3.141,.054c.038,.354,.207,.681,.473,.917,.295,.253,.675,.384,1.063,.366,.526-.005,1.049-.079,1.556-.219l-.098,.946c-.538,.176-1.102,.259-1.668,.244-.839,0-1.482-.236-1.929-.707-.441-.456-.682-1.068-.671-1.702-.012-.658,.214-1.298,.636-1.802,.424-.509,1.014-.763,1.768-.763,.689,0,1.201,.187,1.536,.561,.335,.374,.502,.86,.502,1.458Zm-1.141-.044c0-.748-.319-1.122-.956-1.122-.608,0-.969,.387-1.083,1.161l2.039-.039Z"></path><path class="cls-2" d="M63.682,89.314l-.283,1.141c-.232-.096-.481-.146-.732-.146-.478,0-.793,.215-.946,.644,0,1.297,.01,2.295,.029,2.994h-1.297c.055-.979,.083-1.778,.083-2.399,.004-.74-.078-1.478-.244-2.199l1.244-.137c.055,.358,.083,.567,.083,.629h.078c.299-.458,.697-.688,1.195-.688,.271,.007,.538,.061,.79,.161Z"></path><path class="cls-2" d="M68.988,93.947h-1.492c0-.12-.247-.527-.741-1.222s-.81-1.042-.946-1.041h-.063c0,.667,.019,1.421,.058,2.263h-1.292c.039-1.518,.059-2.726,.059-3.624,.008-1.08-.043-2.159-.151-3.234l1.385-.078c-.046,1.235-.068,2.339-.068,3.311,0,.124,.002,.364,.005,.722h.068c.091,0,.349-.263,.775-.788s.639-.84,.639-.944h1.453c0,.101-.221,.382-.663,.844-.322,.357-.682,.677-1.073,.956v.073c.302,.211,.719,.692,1.251,1.441s.797,1.189,.797,1.319Z"></path><path class="cls-2" d="M76.478,92.216c0,1.272-.914,1.907-2.741,1.907-.585,.005-1.167-.071-1.731-.224l.239-1.087c.479,.173,.983,.266,1.492,.273,.52,0,.894-.05,1.122-.151,.212-.077,.35-.282,.342-.507,0-.248-.12-.48-.322-.624-.185-.149-.561-.345-1.127-.585-.425-.164-.814-.409-1.146-.722-.314-.325-.485-.762-.473-1.214-.022-.513,.211-1.004,.622-1.312,.415-.315,1.01-.473,1.787-.473,.539-.01,1.078,.044,1.605,.161l-.18,1.083c-.457-.163-.94-.243-1.425-.239-.767,0-1.151,.205-1.151,.614-.004,.211,.097,.409,.268,.532,.156,.117,.496,.281,1.02,.493,.556,.224,.972,.471,1.248,.741,.362,.349,.562,.833,.551,1.336Z"></path><path class="cls-2" d="M81.565,93.942l-1.151,.039c-.048-.118-.075-.243-.078-.371h-.063c-.358,.306-.84,.458-1.448,.458-.367,.013-.727-.107-1.012-.339-.266-.221-.415-.554-.402-.9-.006-.484,.229-.939,.627-1.214,.418-.315,1.15-.483,2.197-.502,.006-.055,.01-.11,.01-.166,0-.351-.085-.583-.254-.695-.169-.112-.48-.168-.931-.168-.486,0-.97,.065-1.439,.195l.107-.897c.442-.153,1.066-.229,1.873-.229,.589,0,1.043,.124,1.363,.371s.48,.68,.48,1.297c0,.137-.006,.385-.017,.746s-.017,.601-.017,.722c-.012,.555,.041,1.11,.157,1.653Zm-1.302-1.014c-.019-.439-.029-.818-.029-1.136-1.109,0-1.663,.281-1.663,.844,0,.387,.244,.58,.732,.58,.343,.012,.681-.089,.961-.288h0Z"></path><path class="cls-2" d="M86.393,92.923l-.083,.932c-.296,.156-.697,.234-1.205,.234-.839,0-1.483-.234-1.934-.702-.443-.449-.686-1.057-.675-1.687-.007-.665,.247-1.307,.707-1.787,.471-.509,1.117-.763,1.936-.763,.361-.005,.72,.041,1.068,.137l-.166,.995c-.319-.127-.661-.19-1.005-.185-.359-.016-.704,.139-.931,.417-.232,.291-.353,.655-.342,1.027-.011,.412,.133,.812,.405,1.122,.27,.306,.652,.459,1.146,.458,.367-.013,.73-.079,1.078-.195Z"></path><path class="cls-2" d="M91.757,93.947h-1.297c.071-.823,.107-1.622,.107-2.399,0-.579-.073-.958-.22-1.139-.146-.181-.387-.271-.722-.271-.376,.007-.741,.132-1.044,.356,0,1.382,.016,2.533,.049,3.453h-1.298c.036-1.008,.054-2.215,.054-3.624,.011-1.08-.04-2.159-.151-3.234l1.38-.078c-.049,1.047-.073,1.957-.073,2.731h.063c.396-.38,.924-.592,1.473-.59,.523,0,.934,.119,1.232,.356s.446,.655,.446,1.253c0,.062-.004,.188-.012,.378-.008,.19-.012,.316-.012,.378,0,.543,.008,1.352,.025,2.428Z"></path><path class="cls-2" d="M96.356,92.616c0,.976-.722,1.464-2.165,1.464-.466,.008-.93-.05-1.38-.171l.166-.961c.389,.143,.8,.217,1.215,.219,.39,0,.661-.033,.812-.098,.139-.047,.231-.18,.227-.327,0-.237-.273-.463-.819-.678-.374-.132-.726-.319-1.044-.556-.285-.225-.451-.568-.449-.932-.013-.405,.166-.791,.483-1.044,.322-.263,.79-.395,1.404-.395,.457-.014,.913,.037,1.356,.151l-.166,.966c-.38-.145-.783-.218-1.19-.215-.52,0-.78,.133-.78,.4-.003,.13,.059,.254,.166,.329,.212,.132,.44,.238,.678,.315,.37,.119,.718,.298,1.029,.532,.299,.245,.468,.614,.458,1Z"></path><path class="cls-2" d="M101.667,91.133c0,.166-.01,.382-.029,.649l-3.141,.054c.038,.354,.207,.681,.473,.917,.295,.253,.675,.384,1.063,.366,.526-.005,1.049-.079,1.556-.219l-.098,.946c-.538,.176-1.102,.259-1.667,.244-.839,0-1.482-.236-1.929-.707-.441-.456-.682-1.068-.67-1.702-.012-.658,.213-1.298,.636-1.802,.424-.509,1.014-.763,1.768-.763,.689,0,1.201,.187,1.536,.561,.335,.374,.502,.86,.502,1.458Zm-1.141-.044c0-.748-.319-1.122-.956-1.122-.608,0-.969,.387-1.083,1.161l2.038-.039Z"></path><path class="cls-2" d="M107.153,93.947h-1.297c.071-.823,.107-1.655,.107-2.497,0-.51-.076-.857-.227-1.039s-.381-.273-.69-.273c-.384,.005-.755,.139-1.053,.38,.016,1.268,.024,2.411,.024,3.429h-1.312c.058-1.018,.088-1.817,.088-2.399,.004-.74-.076-1.478-.239-2.199l1.248-.137,.083,.517h.078c.423-.375,.971-.581,1.536-.576,.501,0,.901,.118,1.202,.354s.451,.671,.451,1.305c0,.094-.004,.22-.012,.378s-.012,.319-.012,.485c0,.439,.008,1.196,.024,2.273Z"></path><path class="cls-2" d="M110.23,90.996l-.059,.878-2.087,.073,.044-.878,2.102-.073Z"></path><path class="cls-2" d="M116.848,93.947h-1.56c0-.215-.148-.823-.444-1.824h-2.253c-.306,.985-.458,1.593-.458,1.824h-1.468c0-.127,.38-1.167,1.139-3.121,.759-1.954,1.139-3.03,1.139-3.229h1.843c0,.185,.344,1.246,1.032,3.182,.688,1.936,1.032,2.992,1.031,3.168Zm-2.253-2.755c-.556-1.678-.834-2.585-.834-2.721h-.078c0,.127-.288,1.034-.864,2.721h1.776Z"></path><path class="cls-2" d="M122.052,93.947h-1.297c.072-.823,.108-1.655,.107-2.497,0-.51-.076-.857-.227-1.039-.151-.182-.381-.273-.69-.273-.384,.005-.755,.139-1.053,.38,.016,1.268,.024,2.411,.024,3.429h-1.312c.059-1.018,.088-1.817,.088-2.399,.004-.74-.076-1.478-.239-2.199l1.248-.137,.083,.517h.078c.423-.375,.971-.581,1.536-.576,.501,0,.901,.118,1.202,.354s.451,.671,.451,1.305c0,.094-.004,.22-.012,.378-.008,.158-.012,.319-.012,.485,0,.439,.008,1.196,.024,2.273Z"></path><path class="cls-2" d="M127.743,93.947h-1.297c.071-.823,.107-1.622,.107-2.399,0-.579-.073-.958-.219-1.139-.146-.181-.387-.271-.722-.271-.376,.007-.741,.132-1.044,.356,0,1.382,.016,2.533,.049,3.453h-1.297c.036-1.008,.054-2.215,.054-3.624,.011-1.08-.04-2.159-.151-3.234l1.38-.078c-.049,1.047-.073,1.957-.073,2.731h.063c.396-.38,.924-.592,1.473-.59,.524,0,.934,.119,1.232,.356,.297,.237,.446,.655,.446,1.253,0,.062-.004,.188-.012,.378-.008,.19-.012,.316-.012,.378,0,.543,.008,1.352,.024,2.428Z"></path><path class="cls-2" d="M132.995,93.942l-1.152,.039c-.048-.118-.075-.243-.078-.371h-.063c-.358,.306-.84,.458-1.448,.458-.367,.013-.727-.107-1.012-.339-.266-.221-.415-.554-.402-.9-.005-.484,.229-.939,.627-1.214,.418-.315,1.15-.483,2.197-.502,.006-.055,.01-.11,.01-.166,0-.351-.085-.583-.254-.695-.169-.112-.48-.168-.931-.168-.486,0-.97,.065-1.439,.195l.107-.897c.442-.153,1.066-.229,1.873-.229,.589,0,1.043,.124,1.363,.371s.48,.68,.48,1.297c0,.137-.006,.385-.017,.746s-.017,.601-.017,.722c-.012,.555,.041,1.11,.157,1.653Zm-1.302-1.014c-.019-.439-.029-.818-.029-1.136-1.109,0-1.663,.281-1.663,.844,0,.387,.244,.58,.732,.58,.343,.012,.681-.089,.961-.288h0Z"></path><path class="cls-2" d="M135.589,93.947h-1.332c.049-1.115,.073-2.323,.073-3.624,.009-1.08-.041-2.159-.151-3.234l1.409-.078c-.049,.92-.073,2.024-.073,3.311,0,1.307,.025,2.515,.073,3.624Z"></path><path class="cls-2" d="M139.798,93.035l-.083,.868c-.273,.106-.565,.156-.858,.146-.527,0-.923-.143-1.19-.429-.267-.286-.4-.837-.4-1.654,0-.491,.003-1.047,.01-1.667-.166,0-.39,.01-.673,.029l.034-.961c.25,.02,.483,.029,.697,.029,.003-.172,.016-.626,.039-1.361l1.156-.141c-.049,.647-.073,1.148-.073,1.502,.273,0,.681-.013,1.224-.039l-.039,.97c-.494-.019-.895-.029-1.204-.029-.007,.432-.01,.886-.01,1.361,0,.579,.059,.967,.176,1.164s.323,.295,.619,.295c.195-.002,.388-.03,.575-.083Z"></path></g></g></g></g></svg>